<svg width="30" height="30" viewBox="0 0 30 30" fill="none" xmlns="http://www.w3.org/2000/svg">
<g clip-path="url(#clip0_3277_8571)">
<path d="M8.33337 4.33301H23.3334V5.62467H8.33337V4.33301Z" fill="white"/>
<path d="M24.1666 6.66699H8.21661C8.00394 6.66398 7.79409 6.61792 7.59971 6.5316C7.40533 6.44528 7.23044 6.32049 7.0856 6.16474C6.94076 6.009 6.82896 5.82553 6.75695 5.62541C6.68494 5.42529 6.65421 5.21265 6.66661 5.00033C6.66557 4.57779 6.82506 4.17063 7.11282 3.86122C7.40057 3.5518 7.79511 3.36324 8.21661 3.33366H24.1666C24.3876 3.33366 24.5996 3.24586 24.7559 3.08958C24.9121 2.9333 24.9999 2.72134 24.9999 2.50033C24.9999 2.27931 24.9121 2.06735 24.7559 1.91107C24.5996 1.75479 24.3876 1.66699 24.1666 1.66699H8.21661C7.35293 1.69724 6.53476 2.06174 5.93465 2.68361C5.33454 3.30548 4.99941 4.13612 4.99994 5.00033C4.99188 5.13632 4.99188 5.27267 4.99994 5.40866C4.99191 5.47508 4.99191 5.54223 4.99994 5.60866V25.0003C4.99941 25.8645 5.33454 26.6952 5.93465 27.317C6.53476 27.9389 7.35293 28.3034 8.21661 28.3337H24.1666C24.3876 28.3337 24.5996 28.2459 24.7559 28.0896C24.9121 27.9333 24.9999 27.7213 24.9999 27.5003V7.55866C25.0004 7.33194 24.9145 7.11355 24.7597 6.94791C24.6049 6.78227 24.3928 6.68182 24.1666 6.66699Z" fill="white"/>
</g>
<defs>
<clipPath id="clip0_3277_8571">
<rect width="30" height="30" fill="white"/>
</clipPath>
</defs>
</svg>
