<svg width="30" height="30" viewBox="0 0 30 30" fill="none" xmlns="http://www.w3.org/2000/svg">
<path d="M15.625 12.8125C15.625 12.5639 15.7238 12.3254 15.8996 12.1496C16.0754 11.9738 16.3139 11.875 16.5625 11.875H20.9375C21.1861 11.875 21.4246 11.9738 21.6004 12.1496C21.7762 12.3254 21.875 12.5639 21.875 12.8125C21.875 13.0611 21.7762 13.2996 21.6004 13.4754C21.4246 13.6512 21.1861 13.75 20.9375 13.75H16.5625C16.3139 13.75 16.0754 13.6512 15.8996 13.4754C15.7238 13.2996 15.625 13.0611 15.625 12.8125ZM16.5625 18.75C16.3139 18.75 16.0754 18.8488 15.8996 19.0246C15.7238 19.2004 15.625 19.4389 15.625 19.6875C15.625 19.9361 15.7238 20.1746 15.8996 20.3504C16.0754 20.5262 16.3139 20.625 16.5625 20.625H20.9375C21.1861 20.625 21.4246 20.5262 21.6004 20.3504C21.7762 20.1746 21.875 19.9361 21.875 19.6875C21.875 19.4389 21.7762 19.2004 21.6004 19.0246C21.4246 18.8488 21.1861 18.75 20.9375 18.75H16.5625ZM13.475 12.225C13.5671 12.1392 13.641 12.0357 13.6922 11.9207C13.7435 11.8057 13.771 11.6815 13.7732 11.5557C13.7755 11.4298 13.7523 11.3047 13.7052 11.188C13.658 11.0713 13.5878 10.9652 13.4988 10.8762C13.4098 10.7872 13.3037 10.717 13.187 10.6698C13.0703 10.6227 12.9452 10.5995 12.8193 10.6018C12.6935 10.604 12.5693 10.6315 12.4543 10.6828C12.3393 10.734 12.2358 10.8079 12.15 10.9L10.3125 12.7375L9.725 12.15C9.54728 11.9844 9.31222 11.8942 9.06935 11.8985C8.82647 11.9028 8.59474 12.0012 8.42297 12.173C8.25121 12.3447 8.15282 12.5765 8.14853 12.8193C8.14425 13.0622 8.2344 13.2973 8.4 13.475L9.65 14.725C9.82578 14.9006 10.0641 14.9992 10.3125 14.9992C10.5609 14.9992 10.7992 14.9006 10.975 14.725L13.475 12.225ZM13.475 17.775C13.6506 17.9508 13.7492 18.1891 13.7492 18.4375C13.7492 18.6859 13.6506 18.9242 13.475 19.1L10.975 21.6C10.7992 21.7756 10.5609 21.8742 10.3125 21.8742C10.0641 21.8742 9.82578 21.7756 9.65 21.6L8.4 20.35C8.30789 20.2642 8.23401 20.1607 8.18277 20.0457C8.13153 19.9307 8.10398 19.8065 8.10176 19.6807C8.09954 19.5548 8.1227 19.4297 8.16985 19.313C8.217 19.1963 8.28718 19.0902 8.3762 19.0012C8.46523 18.9122 8.57127 18.842 8.688 18.7948C8.80474 18.7477 8.92977 18.7245 9.05565 18.7268C9.18153 18.729 9.30567 18.7565 9.42067 18.8078C9.53567 18.859 9.63917 18.9329 9.725 19.025L10.3125 19.6125L12.15 17.775C12.3258 17.5994 12.5641 17.5008 12.8125 17.5008C13.0609 17.5008 13.2992 17.5994 13.475 17.775ZM19.9925 5.105C19.9401 4.3969 19.6218 3.73483 19.1016 3.25165C18.5813 2.76847 17.8975 2.49996 17.1875 2.5H12.8125C12.1207 2.50002 11.4532 2.75501 10.9376 3.21621C10.4219 3.67742 10.0944 4.31249 10.0175 5H7.8125C7.06658 5 6.35121 5.29632 5.82376 5.82376C5.29632 6.35121 5 7.06658 5 7.8125V24.6875C5 25.4334 5.29632 26.1488 5.82376 26.6762C6.35121 27.2037 7.06658 27.5 7.8125 27.5H22.1875C22.5568 27.5 22.9226 27.4273 23.2638 27.2859C23.605 27.1446 23.9151 26.9374 24.1762 26.6762C24.4374 26.4151 24.6446 26.105 24.7859 25.7638C24.9273 25.4226 25 25.0568 25 24.6875V7.8125C25 7.44316 24.9273 7.07743 24.7859 6.7362C24.6446 6.39497 24.4374 6.08493 24.1762 5.82376C23.9151 5.5626 23.605 5.35543 23.2638 5.21409C22.9226 5.07275 22.5568 5 22.1875 5H19.9825L19.9925 5.105ZM19.9925 5.12L20 5.3125C20 5.2475 19.9975 5.18375 19.9937 5.12H19.9925ZM12.8125 8.125H17.1875C18.1625 8.125 19.0213 7.62875 19.5263 6.875H22.1875C22.4361 6.875 22.6746 6.97377 22.8504 7.14959C23.0262 7.3254 23.125 7.56386 23.125 7.8125V24.6875C23.125 24.9361 23.0262 25.1746 22.8504 25.3504C22.6746 25.5262 22.4361 25.625 22.1875 25.625H7.8125C7.56386 25.625 7.3254 25.5262 7.14959 25.3504C6.97377 25.1746 6.875 24.9361 6.875 24.6875V7.8125C6.875 7.56386 6.97377 7.3254 7.14959 7.14959C7.3254 6.97377 7.56386 6.875 7.8125 6.875H10.4737C10.9787 7.62875 11.8375 8.125 12.8125 8.125ZM12.8125 4.375H17.1875C17.4361 4.375 17.6746 4.47377 17.8504 4.64959C18.0262 4.8254 18.125 5.06386 18.125 5.3125C18.125 5.56114 18.0262 5.7996 17.8504 5.97541C17.6746 6.15123 17.4361 6.25 17.1875 6.25H12.8125C12.5639 6.25 12.3254 6.15123 12.1496 5.97541C11.9738 5.7996 11.875 5.56114 11.875 5.3125C11.875 5.06386 11.9738 4.8254 12.1496 4.64959C12.3254 4.47377 12.5639 4.375 12.8125 4.375Z" fill="#808080"/>
</svg>
