<svg width="30" height="30" viewBox="0 0 30 30" fill="none" xmlns="http://www.w3.org/2000/svg">
<path d="M6.69642 3.21387C5.7729 3.21387 4.8872 3.58073 4.23418 4.23376C3.58115 4.88679 3.21428 5.77249 3.21428 6.69601V23.3032C3.21428 24.2267 3.58115 25.1124 4.23418 25.7654C4.8872 26.4184 5.7729 26.7853 6.69642 26.7853H23.3036C24.2271 26.7853 25.1128 26.4184 25.7658 25.7654C26.4188 25.1124 26.7857 24.2267 26.7857 23.3032V6.69601C26.7857 5.77249 26.4188 4.88679 25.7658 4.23376C25.1128 3.58073 24.2271 3.21387 23.3036 3.21387H6.69642ZM4.82142 10.1814H25.1786V23.3032C25.1786 23.8004 24.981 24.2773 24.6294 24.629C24.2778 24.9806 23.8008 25.1782 23.3036 25.1782H6.69642C6.19914 25.1782 5.72223 24.9806 5.3706 24.629C5.01897 24.2773 4.82142 23.8004 4.82142 23.3032V10.1814ZM20.6261 18.7507C20.2709 18.7507 19.9302 18.8918 19.679 19.1429C19.4279 19.3941 19.2868 19.7347 19.2868 20.0899C19.2868 20.4451 19.4279 20.7858 19.679 21.037C19.9302 21.2881 20.2709 21.4292 20.6261 21.4292C20.9813 21.4292 21.3219 21.2881 21.5731 21.037C21.8242 20.7858 21.9653 20.4451 21.9653 20.0899C21.9653 19.7347 21.8242 19.3941 21.5731 19.1429C21.3219 18.8918 20.9813 18.7507 20.6261 18.7507ZM14.9968 18.7507C14.6416 18.7507 14.3009 18.8918 14.0498 19.1429C13.7986 19.3941 13.6575 19.7347 13.6575 20.0899C13.6575 20.4451 13.7986 20.7858 14.0498 21.037C14.3009 21.2881 14.6416 21.4292 14.9968 21.4292C15.352 21.4292 15.6926 21.2881 15.9438 21.037C16.195 20.7858 16.3361 20.4451 16.3361 20.0899C16.3361 19.7347 16.195 19.3941 15.9438 19.1429C15.6926 18.8918 15.352 18.7507 14.9968 18.7507ZM20.6261 13.3935C20.2709 13.3935 19.9302 13.5346 19.679 13.7858C19.4279 14.0369 19.2868 14.3776 19.2868 14.7328C19.2868 15.088 19.4279 15.4286 19.679 15.6798C19.9302 15.931 20.2709 16.0721 20.6261 16.0721C20.9813 16.0721 21.3219 15.931 21.5731 15.6798C21.8242 15.4286 21.9653 15.088 21.9653 14.7328C21.9653 14.3776 21.8242 14.0369 21.5731 13.7858C21.3219 13.5346 20.9813 13.3935 20.6261 13.3935ZM14.9968 13.3935C14.6416 13.3935 14.3009 13.5346 14.0498 13.7858C13.7986 14.0369 13.6575 14.3776 13.6575 14.7328C13.6575 15.088 13.7986 15.4286 14.0498 15.6798C14.3009 15.931 14.6416 16.0721 14.9968 16.0721C15.352 16.0721 15.6926 15.931 15.9438 15.6798C16.195 15.4286 16.3361 15.088 16.3361 14.7328C16.3361 14.3776 16.195 14.0369 15.9438 13.7858C15.6926 13.5346 15.352 13.3935 14.9968 13.3935ZM9.36642 13.3935C9.01122 13.3935 8.67057 13.5346 8.4194 13.7858C8.16824 14.0369 8.02714 14.3776 8.02714 14.7328C8.02714 15.088 8.16824 15.4286 8.4194 15.6798C8.67057 15.931 9.01122 16.0721 9.36642 16.0721C9.72162 16.0721 10.0623 15.931 10.3134 15.6798C10.5646 15.4286 10.7057 15.088 10.7057 14.7328C10.7057 14.3776 10.5646 14.0369 10.3134 13.7858C10.0623 13.5346 9.72162 13.3935 9.36642 13.3935ZM6.69642 4.82101H23.3036C24.3386 4.82101 25.1786 5.66101 25.1786 6.69601V8.57422H4.82142V6.69601C4.82142 5.66101 5.66142 4.82101 6.69642 4.82101Z" fill="#808080"/>
</svg>
