<svg width="30" height="30" viewBox="0 0 30 30" fill="none" xmlns="http://www.w3.org/2000/svg">
<path d="M3.21428 10.1786V23.3036C3.21428 24.2272 3.58115 25.1129 4.23418 25.7659C4.8872 26.4189 5.7729 26.7858 6.69642 26.7858H23.3036C24.2271 26.7858 25.1128 26.4189 25.7658 25.7659C26.4188 25.1129 26.7857 24.2272 26.7857 23.3036V10.1786H3.21428ZM20.6346 18.7511C20.9898 18.7511 21.3305 18.8922 21.5817 19.1434C21.8328 19.3946 21.9739 19.7352 21.9739 20.0904C21.9739 20.4456 21.8328 20.7863 21.5817 21.0374C21.3305 21.2886 20.9898 21.4297 20.6346 21.4297C20.2794 21.4297 19.9388 21.2886 19.6876 21.0374C19.4365 20.7863 19.2954 20.4456 19.2954 20.0904C19.2954 19.7352 19.4365 19.3946 19.6876 19.1434C19.9388 18.8922 20.2794 18.7511 20.6346 18.7511ZM15.0043 18.7511C15.3595 18.7511 15.7001 18.8922 15.9513 19.1434C16.2025 19.3946 16.3436 19.7352 16.3436 20.0904C16.3436 20.4456 16.2025 20.7863 15.9513 21.0374C15.7001 21.2886 15.3595 21.4297 15.0043 21.4297C14.6491 21.4297 14.3084 21.2886 14.0573 21.0374C13.8061 20.7863 13.665 20.4456 13.665 20.0904C13.665 19.7352 13.8061 19.3946 14.0573 19.1434C14.3084 18.8922 14.6491 18.7511 15.0043 18.7511ZM20.6346 13.394C20.9898 13.394 21.3305 13.5351 21.5817 13.7863C21.8328 14.0374 21.9739 14.3781 21.9739 14.7333C21.9739 15.0885 21.8328 15.4291 21.5817 15.6803C21.3305 15.9315 20.9898 16.0726 20.6346 16.0726C20.2794 16.0726 19.9388 15.9315 19.6876 15.6803C19.4365 15.4291 19.2954 15.0885 19.2954 14.7333C19.2954 14.3781 19.4365 14.0374 19.6876 13.7863C19.9388 13.5351 20.2794 13.394 20.6346 13.394ZM15.0043 13.394C15.3595 13.394 15.7001 13.5351 15.9513 13.7863C16.2025 14.0374 16.3436 14.3781 16.3436 14.7333C16.3436 15.0885 16.2025 15.4291 15.9513 15.6803C15.7001 15.9315 15.3595 16.0726 15.0043 16.0726C14.6491 16.0726 14.3084 15.9315 14.0573 15.6803C13.8061 15.4291 13.665 15.0885 13.665 14.7333C13.665 14.3781 13.8061 14.0374 14.0573 13.7863C14.3084 13.5351 14.6491 13.394 15.0043 13.394ZM9.37499 13.394C9.73019 13.394 10.0708 13.5351 10.322 13.7863C10.5732 14.0374 10.7143 14.3781 10.7143 14.7333C10.7143 15.0885 10.5732 15.4291 10.322 15.6803C10.0708 15.9315 9.73019 16.0726 9.37499 16.0726C9.01979 16.0726 8.67914 15.9315 8.42798 15.6803C8.17681 15.4291 8.03571 15.0885 8.03571 14.7333C8.03571 14.3781 8.17681 14.0374 8.42798 13.7863C8.67914 13.5351 9.01979 13.394 9.37499 13.394ZM6.69642 3.21436C5.7729 3.21436 4.8872 3.58122 4.23418 4.23425C3.58115 4.88728 3.21428 5.77298 3.21428 6.6965V8.5715H26.7857V6.6965C26.7857 5.77298 26.4188 4.88728 25.7658 4.23425C25.1128 3.58122 24.2271 3.21436 23.3036 3.21436H6.69642Z" fill="white"/>
</svg>
