<svg width="30" height="30" viewBox="0 0 30 30" fill="none" xmlns="http://www.w3.org/2000/svg">
<path d="M6.5625 21.5625C5.38815 21.5623 4.23537 21.2469 3.22443 20.6493C2.21349 20.0517 1.38143 19.1938 0.815045 18.1651C0.24866 17.1363 -0.0312951 15.9744 0.00438443 14.8006C0.0400639 13.6268 0.390071 12.4841 1.01789 11.4916C1.64571 10.4992 2.52835 9.69339 3.57371 9.1583C4.61908 8.62322 5.78888 8.37845 6.96109 8.44954C8.13329 8.52062 9.26494 8.90495 10.238 9.56243C11.211 10.2199 11.9898 11.1265 12.4931 12.1875H26.25L29.0625 15L26.25 17.8125L24.375 15.9375L22.5 17.8125L20.625 15.9375L18.75 17.8125L16.875 15.9375L15 17.8125H12.4931C11.9608 18.9347 11.1209 19.8829 10.0711 20.5467C9.02126 21.2105 7.80459 21.5628 6.5625 21.5625ZM4.6875 16.875C5.18478 16.875 5.6617 16.6775 6.01333 16.3258C6.36496 15.9742 6.5625 15.4973 6.5625 15C6.5625 14.5027 6.36496 14.0258 6.01333 13.6742C5.6617 13.3225 5.18478 13.125 4.6875 13.125C4.19022 13.125 3.71331 13.3225 3.36168 13.6742C3.01004 14.0258 2.8125 14.5027 2.8125 15C2.8125 15.4973 3.01004 15.9742 3.36168 16.3258C3.71331 16.6775 4.19022 16.875 4.6875 16.875Z" fill="white"/>
</svg>
