<svg width="30" height="30" viewBox="0 0 30 30" fill="none" xmlns="http://www.w3.org/2000/svg">
<g clip-path="url(#clip0_2475_3168)">
<path d="M5.68862e-07 15C-0.000642453 13.3484 0.543868 11.7429 1.54903 10.4324C2.55419 9.12199 3.96379 8.17997 5.55907 7.75257C7.15436 7.32517 8.84611 7.43628 10.3718 8.06866C11.8975 8.70105 13.1717 9.81934 13.9969 11.25H26.25C26.3732 11.2498 26.4952 11.2738 26.6091 11.3208C26.723 11.3678 26.8265 11.4367 26.9137 11.5237L29.7262 14.3362C29.8136 14.4233 29.8828 14.5268 29.9301 14.6407C29.9773 14.7546 30.0017 14.8767 30.0017 15C30.0017 15.1233 29.9773 15.2454 29.9301 15.3593C29.8828 15.4732 29.8136 15.5767 29.7262 15.6637L26.9137 18.4762C26.8267 18.5635 26.7232 18.6328 26.6093 18.6801C26.4954 18.7273 26.3733 18.7517 26.25 18.7517C26.1267 18.7517 26.0046 18.7273 25.8907 18.6801C25.7768 18.6328 25.6733 18.5635 25.5863 18.4762L24.375 17.2631L23.1637 18.4762C23.0767 18.5635 22.9732 18.6328 22.8593 18.6801C22.7454 18.7273 22.6233 18.7517 22.5 18.7517C22.3767 18.7517 22.2546 18.7273 22.1407 18.6801C22.0268 18.6328 21.9233 18.5635 21.8363 18.4762L20.625 17.2631L19.4137 18.4762C19.3267 18.5635 19.2232 18.6328 19.1093 18.6801C18.9954 18.7273 18.8733 18.7517 18.75 18.7517C18.6267 18.7517 18.5046 18.7273 18.3907 18.6801C18.2768 18.6328 18.1733 18.5635 18.0863 18.4762L16.875 17.2631L15.6637 18.4762C15.5765 18.5632 15.473 18.6322 15.3591 18.6792C15.2452 18.7261 15.1232 18.7502 15 18.75H13.9969C13.1717 20.1806 11.8975 21.2989 10.3718 21.9313C8.84611 22.5637 7.15436 22.6748 5.55907 22.2474C3.96379 21.82 2.55419 20.878 1.54903 19.5676C0.543868 18.2571 -0.000642453 16.6515 5.68862e-07 15ZM7.5 9.37499C6.49339 9.37537 5.50532 9.64587 4.63888 10.1583C3.77243 10.6706 3.05936 11.4062 2.57405 12.288C2.08874 13.1699 1.84897 14.1659 1.87977 15.1721C1.91056 16.1782 2.21078 17.1576 2.74911 18.0082C3.28744 18.8588 4.04415 19.5493 4.94031 20.0078C5.83646 20.4662 6.83922 20.6758 7.84397 20.6146C8.84872 20.5534 9.81865 20.2238 10.6526 19.66C11.4865 19.0962 12.1538 18.319 12.585 17.4094C12.6611 17.2495 12.7809 17.1145 12.9306 17.02C13.0802 16.9254 13.2536 16.8751 13.4306 16.875H14.6119L16.2113 15.2737C16.2983 15.1864 16.4018 15.1172 16.5157 15.0699C16.6296 15.0226 16.7517 14.9983 16.875 14.9983C16.9983 14.9983 17.1204 15.0226 17.2343 15.0699C17.3482 15.1172 17.4517 15.1864 17.5387 15.2737L18.75 16.4869L19.9613 15.2737C20.0483 15.1864 20.1518 15.1172 20.2657 15.0699C20.3796 15.0226 20.5017 14.9983 20.625 14.9983C20.7483 14.9983 20.8704 15.0226 20.9843 15.0699C21.0982 15.1172 21.2017 15.1864 21.2887 15.2737L22.5 16.4869L23.7113 15.2737C23.7983 15.1864 23.9018 15.1172 24.0157 15.0699C24.1296 15.0226 24.2517 14.9983 24.375 14.9983C24.4983 14.9983 24.6204 15.0226 24.7343 15.0699C24.8482 15.1172 24.9517 15.1864 25.0387 15.2737L26.25 16.4869L27.7369 15L25.8619 13.125H13.4306C13.2536 13.1248 13.0802 13.0746 12.9306 12.98C12.7809 12.8854 12.6611 12.7504 12.585 12.5906C12.1288 11.6282 11.4087 10.8151 10.5085 10.2458C9.60837 9.67657 8.56507 9.37459 7.5 9.37499Z" fill="#808080"/>
<path d="M7.5 15C7.5 15.4973 7.30246 15.9742 6.95083 16.3258C6.59919 16.6775 6.12228 16.875 5.625 16.875C5.12772 16.875 4.65081 16.6775 4.29917 16.3258C3.94754 15.9742 3.75 15.4973 3.75 15C3.75 14.5027 3.94754 14.0258 4.29917 13.6742C4.65081 13.3225 5.12772 13.125 5.625 13.125C6.12228 13.125 6.59919 13.3225 6.95083 13.6742C7.30246 14.0258 7.5 14.5027 7.5 15Z" fill="#808080"/>
</g>
<defs>
<clipPath id="clip0_2475_3168">
<rect width="30" height="30" fill="white"/>
</clipPath>
</defs>
</svg>
