<svg width="30" height="30" viewBox="0 0 30 30" fill="none" xmlns="http://www.w3.org/2000/svg">
<path fill-rule="evenodd" clip-rule="evenodd" d="M3.75 3.75V21.25H17.7419V20H5V5H21.875V6.325H23.125V3.75H3.75ZM23.125 10C23.125 10.3315 22.9933 10.6495 22.7589 10.8839C22.5245 11.1183 22.2065 11.25 21.875 11.25C21.5435 11.25 21.2255 11.1183 20.9911 10.8839C20.7567 10.6495 20.625 10.3315 20.625 10C20.625 9.66848 20.7567 9.35054 20.9911 9.11612C21.2255 8.8817 21.5435 8.75 21.875 8.75C22.2065 8.75 22.5245 8.8817 22.7589 9.11612C22.9933 9.35054 23.125 9.66848 23.125 10ZM24.375 10C24.375 10.663 24.1116 11.2989 23.6428 11.7678C23.1739 12.2366 22.538 12.5 21.875 12.5C21.212 12.5 20.5761 12.2366 20.1072 11.7678C19.6384 11.2989 19.375 10.663 19.375 10C19.375 9.33696 19.6384 8.70107 20.1072 8.23223C20.5761 7.76339 21.212 7.5 21.875 7.5C22.538 7.5 23.1739 7.76339 23.6428 8.23223C24.1116 8.70107 24.375 9.33696 24.375 10Z" fill="#808080"/>
<path fill-rule="evenodd" clip-rule="evenodd" d="M18.8081 13.6437C19.1567 13.311 19.62 13.1252 20.1019 13.125H22.6531C23.5681 13.125 24.42 13.4362 25.0762 14.0562C25.7075 14.6525 26.0362 15.4169 26.1706 16.1413C26.3819 17.28 26.1631 18.5244 25.625 19.6275V24.6875C25.625 25.0796 25.4776 25.4574 25.212 25.7458C24.9465 26.0343 24.5821 26.2124 24.1914 26.2447C23.8006 26.2771 23.412 26.1613 23.1026 25.9204C22.7932 25.6795 22.5857 25.3311 22.5212 24.9444L22.1875 22.9419L21.8537 24.9444C21.7893 25.3311 21.5818 25.6795 21.2724 25.9204C20.963 26.1613 20.5744 26.2771 20.1836 26.2447C19.7929 26.2124 19.4285 26.0343 19.163 25.7458C18.8974 25.4574 18.75 25.0796 18.75 24.6875V18.8081C18.465 18.9727 18.1416 19.0594 17.8125 19.0594H14.6237C14.1265 19.0594 13.6496 18.8618 13.2979 18.5102C12.9463 18.1586 12.7487 17.6817 12.7487 17.1844C12.7487 16.6871 12.9463 16.2102 13.2979 15.8586C13.6496 15.5069 14.1265 15.3094 14.6237 15.3094H17.0612L18.8081 13.6431V13.6437ZM20 20.9219V24.6875C20.0002 24.7658 20.0298 24.8411 20.0829 24.8986C20.136 24.9562 20.2088 24.9916 20.2868 24.9981C20.3648 25.0045 20.4424 24.9815 20.5042 24.9334C20.566 24.8854 20.6076 24.8159 20.6206 24.7388L21.2725 20.8288C21.2968 20.6828 21.372 20.5502 21.4848 20.4545C21.5977 20.3589 21.7408 20.3063 21.8887 20.3063H22.4862C22.6342 20.3063 22.7773 20.3589 22.8902 20.4545C23.003 20.5502 23.0782 20.6828 23.1025 20.8288L23.7544 24.7388C23.7674 24.8159 23.809 24.8854 23.8708 24.9334C23.9326 24.9815 24.0102 25.0045 24.0882 24.9981C24.1662 24.9916 24.239 24.9562 24.2921 24.8986C24.3452 24.8411 24.3748 24.7658 24.375 24.6875V19.4788C24.375 19.3787 24.399 19.2801 24.445 19.1912C24.9275 18.26 25.1031 17.2394 24.9419 16.3694C24.8437 15.8406 24.6144 15.3394 24.2181 14.965C23.8137 14.5831 23.2775 14.375 22.6531 14.375H20.1025C19.9419 14.375 19.7869 14.4369 19.6706 14.5475L17.7431 16.3863C17.627 16.4972 17.4725 16.5592 17.3119 16.5594H14.6237C14.458 16.5594 14.299 16.6252 14.1818 16.7424C14.0646 16.8596 13.9987 17.0186 13.9987 17.1844C13.9987 17.3501 14.0646 17.5091 14.1818 17.6263C14.299 17.7435 14.458 17.8094 14.6237 17.8094H17.8125C17.9732 17.8092 18.1276 17.7472 18.2437 17.6363L18.9437 16.9687C19.0323 16.8843 19.1437 16.8278 19.2641 16.806C19.3845 16.7843 19.5087 16.7985 19.6211 16.8466C19.7336 16.8948 19.8294 16.9749 19.8968 17.0771C19.9641 17.1792 20 17.2989 20 17.4213V20.9225V20.9219Z" fill="#808080"/>
</svg>
