<svg width="40" height="40" viewBox="0 0 40 40" fill="none" xmlns="http://www.w3.org/2000/svg">
<path d="M30.4414 7.67969C26.7618 4 20.7696 4 17.0938 7.67969L6.89847 17.8672C6.83207 17.9336 6.79691 18.0234 6.79691 18.1172C6.79691 18.2109 6.83207 18.3008 6.89847 18.3672L8.33988 19.8086C8.40577 19.8742 8.49495 19.911 8.58793 19.911C8.6809 19.911 8.77009 19.8742 8.83597 19.8086L19.0313 9.62109C20.2969 8.35547 21.9805 7.66016 23.7696 7.66016C25.5586 7.66016 27.2422 8.35547 28.5039 9.62109C29.7696 10.8867 30.4649 12.5703 30.4649 14.3555C30.4649 16.1445 29.7696 17.8242 28.5039 19.0898L18.1133 29.4766L16.4297 31.1602C14.8555 32.7344 12.2969 32.7344 10.7227 31.1602C9.96097 30.3984 9.543 29.3867 9.543 28.3086C9.543 27.2305 9.96097 26.2188 10.7227 25.457L21.0313 15.1523C21.293 14.8945 21.6368 14.75 22.0039 14.75H22.0078C22.375 14.75 22.7149 14.8945 22.9727 15.1523C23.2344 15.4141 23.375 15.7578 23.375 16.125C23.375 16.4883 23.2305 16.832 22.9727 17.0898L14.5469 25.5078C14.4805 25.5742 14.4453 25.6641 14.4453 25.7578C14.4453 25.8516 14.4805 25.9414 14.5469 26.0078L15.9883 27.4492C16.0542 27.5148 16.1434 27.5516 16.2364 27.5516C16.3293 27.5516 16.4185 27.5148 16.4844 27.4492L24.9063 19.0273C25.6836 18.25 26.1094 17.2188 26.1094 16.1211C26.1094 15.0234 25.6797 13.9883 24.9063 13.2148C23.3008 11.6094 20.6914 11.6133 19.086 13.2148L18.086 14.2188L8.78129 23.5195C8.14977 24.1473 7.64917 24.8943 7.30853 25.7171C6.9679 26.5398 6.79399 27.422 6.79691 28.3125C6.79691 30.1211 7.50394 31.8203 8.78129 33.0977C10.1055 34.418 11.8399 35.0781 13.5743 35.0781C15.3086 35.0781 17.043 34.418 18.3633 33.0977L30.4414 21.0273C32.2188 19.2461 33.2032 16.875 33.2032 14.3555C33.2071 11.832 32.2227 9.46094 30.4414 7.67969Z" fill="#808080"/>
</svg>
