<svg width="30" height="30" viewBox="0 0 30 30" fill="none" xmlns="http://www.w3.org/2000/svg">
<path d="M23.75 3.75H18.525C18 2.3 16.625 1.25 15 1.25C13.375 1.25 12 2.3 11.475 3.75H6.25C4.875 3.75 3.75 4.875 3.75 6.25V23.75C3.75 25.125 4.875 26.25 6.25 26.25H23.75C25.125 26.25 26.25 25.125 26.25 23.75V6.25C26.25 4.875 25.125 3.75 23.75 3.75ZM15 3.75C15.6875 3.75 16.25 4.3125 16.25 5C16.25 5.6875 15.6875 6.25 15 6.25C14.3125 6.25 13.75 5.6875 13.75 5C13.75 4.3125 14.3125 3.75 15 3.75ZM16.25 21.25H10C9.3125 21.25 8.75 20.6875 8.75 20C8.75 19.3125 9.3125 18.75 10 18.75H16.25C16.9375 18.75 17.5 19.3125 17.5 20C17.5 20.6875 16.9375 21.25 16.25 21.25ZM20 16.25H10C9.3125 16.25 8.75 15.6875 8.75 15C8.75 14.3125 9.3125 13.75 10 13.75H20C20.6875 13.75 21.25 14.3125 21.25 15C21.25 15.6875 20.6875 16.25 20 16.25ZM20 11.25H10C9.3125 11.25 8.75 10.6875 8.75 10C8.75 9.3125 9.3125 8.75 10 8.75H20C20.6875 8.75 21.25 9.3125 21.25 10C21.25 10.6875 20.6875 11.25 20 11.25Z" fill="white"/>
</svg>
