<svg width="30" height="30" viewBox="0 0 30 30" fill="none" xmlns="http://www.w3.org/2000/svg">
<path d="M10 21.25H16.25C16.6042 21.25 16.9013 21.13 17.1413 20.89C17.3804 20.6508 17.5 20.3542 17.5 20C17.5 19.6458 17.3804 19.3487 17.1413 19.1087C16.9013 18.8696 16.6042 18.75 16.25 18.75H10C9.64583 18.75 9.34875 18.8696 9.10875 19.1087C8.86958 19.3487 8.75 19.6458 8.75 20C8.75 20.3542 8.86958 20.6508 9.10875 20.89C9.34875 21.13 9.64583 21.25 10 21.25ZM10 16.25H20C20.3542 16.25 20.6508 16.13 20.89 15.89C21.13 15.6508 21.25 15.3542 21.25 15C21.25 14.6458 21.13 14.3487 20.89 14.1087C20.6508 13.8696 20.3542 13.75 20 13.75H10C9.64583 13.75 9.34875 13.8696 9.10875 14.1087C8.86958 14.3487 8.75 14.6458 8.75 15C8.75 15.3542 8.86958 15.6508 9.10875 15.89C9.34875 16.13 9.64583 16.25 10 16.25ZM10 11.25H20C20.3542 11.25 20.6508 11.13 20.89 10.89C21.13 10.6508 21.25 10.3542 21.25 10C21.25 9.64583 21.13 9.34875 20.89 9.10875C20.6508 8.86958 20.3542 8.75 20 8.75H10C9.64583 8.75 9.34875 8.86958 9.10875 9.10875C8.86958 9.34875 8.75 9.64583 8.75 10C8.75 10.3542 8.86958 10.6508 9.10875 10.89C9.34875 11.13 9.64583 11.25 10 11.25ZM6.25 23.75H23.75V6.25H6.25V23.75ZM6.25 6.25V23.75V6.25ZM6.25 26.25C5.5625 26.25 4.97375 26.0054 4.48375 25.5163C3.99458 25.0263 3.75 24.4375 3.75 23.75V6.25C3.75 5.5625 3.99458 4.97375 4.48375 4.48375C4.97375 3.99458 5.5625 3.75 6.25 3.75H11.5C11.7708 3 12.2242 2.39583 12.86 1.9375C13.495 1.47917 14.2083 1.25 15 1.25C15.7917 1.25 16.5054 1.47917 17.1413 1.9375C17.7763 2.39583 18.2292 3 18.5 3.75H23.75C24.4375 3.75 25.0263 3.99458 25.5163 4.48375C26.0054 4.97375 26.25 5.5625 26.25 6.25V23.75C26.25 24.4375 26.0054 25.0263 25.5163 25.5163C25.0263 26.0054 24.4375 26.25 23.75 26.25H6.25ZM15 5.3125C15.2708 5.3125 15.495 5.22375 15.6725 5.04625C15.8492 4.86958 15.9375 4.64583 15.9375 4.375C15.9375 4.10417 15.8492 3.88 15.6725 3.7025C15.495 3.52583 15.2708 3.4375 15 3.4375C14.7292 3.4375 14.5054 3.52583 14.3288 3.7025C14.1513 3.88 14.0625 4.10417 14.0625 4.375C14.0625 4.64583 14.1513 4.86958 14.3288 5.04625C14.5054 5.22375 14.7292 5.3125 15 5.3125Z" fill="#808080"/>
</svg>
