<svg width="30" height="30" viewBox="0 0 30 30" fill="none" xmlns="http://www.w3.org/2000/svg">
<path fill-rule="evenodd" clip-rule="evenodd" d="M24.375 8.125C23.8777 8.125 23.4008 8.32254 23.0492 8.67417C22.6975 9.02581 22.5 9.50272 22.5 10V11.25H26.25V10C26.25 9.50272 26.0525 9.02581 25.7008 8.67417C25.3492 8.32254 24.8723 8.125 24.375 8.125ZM26.25 12.5H22.5V22.8125L24.375 25.625L26.25 22.8125V12.5ZM3.75 5.625V24.375C3.75 24.8723 3.94754 25.3492 4.29917 25.7008C4.65081 26.0525 5.12772 26.25 5.625 26.25H19.375C19.8723 26.25 20.3492 26.0525 20.7008 25.7008C21.0525 25.3492 21.25 24.8723 21.25 24.375V5.625C21.25 5.12772 21.0525 4.65081 20.7008 4.29917C20.3492 3.94754 19.8723 3.75 19.375 3.75H5.625C5.12772 3.75 4.65081 3.94754 4.29917 4.29917C3.94754 4.65081 3.75 5.12772 3.75 5.625ZM12.5 9.375C12.5 9.20924 12.5658 9.05027 12.6831 8.93306C12.8003 8.81585 12.9592 8.75 13.125 8.75H18.125C18.2908 8.75 18.4497 8.81585 18.5669 8.93306C18.6842 9.05027 18.75 9.20924 18.75 9.375C18.75 9.54076 18.6842 9.69973 18.5669 9.81694C18.4497 9.93415 18.2908 10 18.125 10H13.125C12.9592 10 12.8003 9.93415 12.6831 9.81694C12.5658 9.69973 12.5 9.54076 12.5 9.375ZM13.125 11.25C12.9592 11.25 12.8003 11.3158 12.6831 11.4331C12.5658 11.5503 12.5 11.7092 12.5 11.875C12.5 12.0408 12.5658 12.1997 12.6831 12.3169C12.8003 12.4342 12.9592 12.5 13.125 12.5H18.125C18.2908 12.5 18.4497 12.4342 18.5669 12.3169C18.6842 12.1997 18.75 12.0408 18.75 11.875C18.75 11.7092 18.6842 11.5503 18.5669 11.4331C18.4497 11.3158 18.2908 11.25 18.125 11.25H13.125ZM12.5 17.5C12.5 17.3342 12.5658 17.1753 12.6831 17.0581C12.8003 16.9408 12.9592 16.875 13.125 16.875H18.125C18.2908 16.875 18.4497 16.9408 18.5669 17.0581C18.6842 17.1753 18.75 17.3342 18.75 17.5C18.75 17.6658 18.6842 17.8247 18.5669 17.9419C18.4497 18.0592 18.2908 18.125 18.125 18.125H13.125C12.9592 18.125 12.8003 18.0592 12.6831 17.9419C12.5658 17.8247 12.5 17.6658 12.5 17.5ZM13.125 19.375C12.9592 19.375 12.8003 19.4408 12.6831 19.5581C12.5658 19.6753 12.5 19.8342 12.5 20C12.5 20.1658 12.5658 20.3247 12.6831 20.4419C12.8003 20.5592 12.9592 20.625 13.125 20.625H18.125C18.2908 20.625 18.4497 20.5592 18.5669 20.4419C18.6842 20.3247 18.75 20.1658 18.75 20C18.75 19.8342 18.6842 19.6753 18.5669 19.5581C18.4497 19.4408 18.2908 19.375 18.125 19.375H13.125ZM7.5 17.5V19.375H9.375V17.5H7.5ZM6.875 16.25H10C10.1658 16.25 10.3247 16.3158 10.4419 16.4331C10.5592 16.5503 10.625 16.7092 10.625 16.875V20C10.625 20.1658 10.5592 20.3247 10.4419 20.4419C10.3247 20.5592 10.1658 20.625 10 20.625H6.875C6.70924 20.625 6.55027 20.5592 6.43306 20.4419C6.31585 20.3247 6.25 20.1658 6.25 20V16.875C6.25 16.7092 6.31585 16.5503 6.43306 16.4331C6.55027 16.3158 6.70924 16.25 6.875 16.25ZM11.0669 9.81687C11.1807 9.699 11.2437 9.54112 11.2423 9.37725C11.2409 9.21338 11.1751 9.05662 11.0593 8.94074C10.9434 8.82486 10.7866 8.75913 10.6228 8.7577C10.4589 8.75628 10.301 8.81928 10.1831 8.93313L8.125 10.9913L7.31687 10.1831C7.199 10.0693 7.04112 10.0063 6.87725 10.0077C6.71338 10.0091 6.55662 10.0749 6.44074 10.1907C6.32486 10.3066 6.25913 10.4634 6.2577 10.6272C6.25628 10.7911 6.31928 10.949 6.43313 11.0669L8.125 12.7587L11.0669 9.81687Z" fill="white"/>
</svg>
