<svg width="30" height="30" viewBox="0 0 30 30" fill="none" xmlns="http://www.w3.org/2000/svg">
<path fill-rule="evenodd" clip-rule="evenodd" d="M22.5 10C22.5 9.50272 22.6975 9.02581 23.0492 8.67417C23.4008 8.32254 23.8777 8.125 24.375 8.125C24.8723 8.125 25.3492 8.32254 25.7008 8.67417C26.0525 9.02581 26.25 9.50272 26.25 10V22.6894L24.375 25.5019L22.5 22.6894V10ZM24.375 9.375C24.2092 9.375 24.0503 9.44085 23.9331 9.55806C23.8158 9.67527 23.75 9.83424 23.75 10V22.3106L24.375 23.2481L25 22.3106V10C25 9.83424 24.9342 9.67527 24.8169 9.55806C24.6997 9.44085 24.5408 9.375 24.375 9.375Z" fill="#808080"/>
<path fill-rule="evenodd" clip-rule="evenodd" d="M25.625 12.5H23.125V11.25H25.625V12.5ZM6.25 5C5.91848 5 5.60054 5.1317 5.36612 5.36612C5.1317 5.60054 5 5.91848 5 6.25V23.75C5 24.0815 5.1317 24.3995 5.36612 24.6339C5.60054 24.8683 5.91848 25 6.25 25H18.75C19.0815 25 19.3995 24.8683 19.6339 24.6339C19.8683 24.3995 20 24.0815 20 23.75V6.25C20 5.91848 19.8683 5.60054 19.6339 5.36612C19.3995 5.1317 19.0815 5 18.75 5H6.25ZM3.75 6.25C3.75 5.58696 4.01339 4.95107 4.48223 4.48223C4.95107 4.01339 5.58696 3.75 6.25 3.75H18.75C19.413 3.75 20.0489 4.01339 20.5178 4.48223C20.9866 4.95107 21.25 5.58696 21.25 6.25V23.75C21.25 24.413 20.9866 25.0489 20.5178 25.5178C20.0489 25.9866 19.413 26.25 18.75 26.25H6.25C5.58696 26.25 4.95107 25.9866 4.48223 25.5178C4.01339 25.0489 3.75 24.413 3.75 23.75V6.25Z" fill="#808080"/>
<path fill-rule="evenodd" clip-rule="evenodd" d="M12.5001 9.375C12.5001 9.20924 12.566 9.05027 12.6832 8.93306C12.8004 8.81585 12.9594 8.75 13.1251 8.75H18.1251C18.2909 8.75 18.4498 8.81585 18.5671 8.93306C18.6843 9.05027 18.7501 9.20924 18.7501 9.375C18.7501 9.54076 18.6843 9.69973 18.5671 9.81694C18.4498 9.93415 18.2909 10 18.1251 10H13.1251C12.9594 10 12.8004 9.93415 12.6832 9.81694C12.566 9.69973 12.5001 9.54076 12.5001 9.375ZM12.5001 11.875C12.5001 11.7092 12.566 11.5503 12.6832 11.4331C12.8004 11.3158 12.9594 11.25 13.1251 11.25H18.1251C18.2909 11.25 18.4498 11.3158 18.5671 11.4331C18.6843 11.5503 18.7501 11.7092 18.7501 11.875C18.7501 12.0408 18.6843 12.1997 18.5671 12.3169C18.4498 12.4342 18.2909 12.5 18.1251 12.5H13.1251C12.9594 12.5 12.8004 12.4342 12.6832 12.3169C12.566 12.1997 12.5001 12.0408 12.5001 11.875ZM12.5001 17.5C12.5001 17.3342 12.566 17.1753 12.6832 17.0581C12.8004 16.9408 12.9594 16.875 13.1251 16.875H18.1251C18.2909 16.875 18.4498 16.9408 18.5671 17.0581C18.6843 17.1753 18.7501 17.3342 18.7501 17.5C18.7501 17.6658 18.6843 17.8247 18.5671 17.9419C18.4498 18.0592 18.2909 18.125 18.1251 18.125H13.1251C12.9594 18.125 12.8004 18.0592 12.6832 17.9419C12.566 17.8247 12.5001 17.6658 12.5001 17.5ZM12.5001 20C12.5001 19.8342 12.566 19.6753 12.6832 19.5581C12.8004 19.4408 12.9594 19.375 13.1251 19.375H18.1251C18.2909 19.375 18.4498 19.4408 18.5671 19.5581C18.6843 19.6753 18.7501 19.8342 18.7501 20C18.7501 20.1658 18.6843 20.3247 18.5671 20.4419C18.4498 20.5592 18.2909 20.625 18.1251 20.625H13.1251C12.9594 20.625 12.8004 20.5592 12.6832 20.4419C12.566 20.3247 12.5001 20.1658 12.5001 20ZM7.50011 17.5V19.375H9.37511V17.5H7.50011ZM6.87511 16.25H10.0001C10.1659 16.25 10.3248 16.3158 10.4421 16.4331C10.5593 16.5503 10.6251 16.7092 10.6251 16.875V20C10.6251 20.1658 10.5593 20.3247 10.4421 20.4419C10.3248 20.5592 10.1659 20.625 10.0001 20.625H6.87511C6.70935 20.625 6.55038 20.5592 6.43317 20.4419C6.31596 20.3247 6.25011 20.1658 6.25011 20V16.875C6.25011 16.7092 6.31596 16.5503 6.43317 16.4331C6.55038 16.3158 6.70935 16.25 6.87511 16.25V16.25ZM11.067 8.93313C11.1842 9.05033 11.25 9.20927 11.25 9.375C11.25 9.54073 11.1842 9.69967 11.067 9.81687L8.12511 12.7587L6.43324 11.0669C6.37354 11.0092 6.32593 10.9403 6.29317 10.864C6.26042 10.7878 6.24318 10.7057 6.24246 10.6228C6.24173 10.5398 6.25755 10.4575 6.28897 10.3807C6.3204 10.3038 6.36681 10.2341 6.42549 10.1754C6.48417 10.1167 6.55396 10.0703 6.63077 10.0389C6.70758 10.0074 6.78988 9.99162 6.87286 9.99234C6.95585 9.99306 7.03786 10.0103 7.11411 10.0431C7.19037 10.0758 7.25933 10.1234 7.31699 10.1831L8.12511 10.9913L10.1832 8.93313C10.3004 8.81596 10.4594 8.75013 10.6251 8.75013C10.7908 8.75013 10.9498 8.81596 11.067 8.93313V8.93313Z" fill="#808080"/>
</svg>
