<svg width="30" height="30" viewBox="0 0 30 30" fill="none" xmlns="http://www.w3.org/2000/svg">
<path d="M17.8125 2.8125C17.3152 2.8125 16.8383 3.01004 16.4867 3.36167C16.135 3.71331 15.9375 4.19022 15.9375 4.6875V8.4375C15.9375 8.93478 16.135 9.41169 16.4867 9.76332C16.8383 10.115 17.3152 10.3125 17.8125 10.3125V13.125L21.1875 10.3125H25.3125C25.8098 10.3125 26.2867 10.115 26.6383 9.76332C26.99 9.41169 27.1875 8.93478 27.1875 8.4375V4.6875C27.1875 4.19022 26.99 3.71331 26.6383 3.36167C26.2867 3.01004 25.8098 2.8125 25.3125 2.8125H17.8125ZM9.375 7.5C8.38044 7.5 7.42661 7.89509 6.72335 8.59835C6.02009 9.30161 5.625 10.2554 5.625 11.25C5.625 12.2446 6.02009 13.1984 6.72335 13.9017C7.42661 14.6049 8.38044 15 9.375 15C10.3696 15 11.3234 14.6049 12.0267 13.9017C12.7299 13.1984 13.125 12.2446 13.125 11.25C13.125 10.2554 12.7299 9.30161 12.0267 8.59835C11.3234 7.89509 10.3696 7.5 9.375 7.5ZM14.0625 16.875H4.6875C3.94158 16.875 3.22621 17.1713 2.69876 17.6988C2.17132 18.2262 1.875 18.9416 1.875 19.6875C1.875 21.78 2.73562 23.4562 4.1475 24.5906C5.53687 25.7062 7.40063 26.25 9.375 26.25C11.3494 26.25 13.2131 25.7062 14.6025 24.5906C16.0125 23.4562 16.875 21.78 16.875 19.6875C16.875 18.9416 16.5787 18.2262 16.0512 17.6988C15.5238 17.1713 14.8084 16.875 14.0625 16.875Z" fill="white"/>
</svg>
