<svg width="30" height="30" viewBox="0 0 30 30" fill="none" xmlns="http://www.w3.org/2000/svg">
<path d="M17.8125 1.875C17.0666 1.875 16.3512 2.17132 15.8238 2.69876C15.2963 3.22621 15 3.94158 15 4.6875V8.4375C15.0001 9.01904 15.1804 9.58626 15.5162 10.0611C15.852 10.5359 16.3267 10.8949 16.875 11.0887V13.125C16.8751 13.3031 16.9259 13.4776 17.0215 13.6279C17.1171 13.7782 17.2536 13.8981 17.4149 13.9737C17.5762 14.0492 17.7557 14.0772 17.9324 14.0544C18.1091 14.0317 18.2756 13.959 18.4125 13.845L21.525 11.25H25.3125C26.0584 11.25 26.7738 10.9537 27.3012 10.4262C27.8287 9.89879 28.125 9.18342 28.125 8.4375V4.6875C28.125 3.94158 27.8287 3.22621 27.3012 2.69876C26.7738 2.17132 26.0584 1.875 25.3125 1.875H17.8125ZM16.875 4.6875C16.875 4.43886 16.9738 4.2004 17.1496 4.02459C17.3254 3.84877 17.5639 3.75 17.8125 3.75H25.3125C25.5611 3.75 25.7996 3.84877 25.9754 4.02459C26.1512 4.2004 26.25 4.43886 26.25 4.6875V8.4375C26.25 8.68614 26.1512 8.9246 25.9754 9.10041C25.7996 9.27623 25.5611 9.375 25.3125 9.375H21.1875C20.9682 9.3751 20.7559 9.45206 20.5875 9.5925L18.75 11.1225V10.3125C18.75 10.0639 18.6512 9.8254 18.4754 9.64959C18.2996 9.47377 18.0611 9.375 17.8125 9.375C17.5639 9.375 17.3254 9.27623 17.1496 9.10041C16.9738 8.9246 16.875 8.68614 16.875 8.4375V4.6875ZM5.625 11.25C5.625 10.2554 6.02009 9.30161 6.72335 8.59835C7.42661 7.89509 8.38044 7.5 9.375 7.5C10.3696 7.5 11.3234 7.89509 12.0267 8.59835C12.7299 9.30161 13.125 10.2554 13.125 11.25C13.125 12.2446 12.7299 13.1984 12.0267 13.9017C11.3234 14.6049 10.3696 15 9.375 15C8.38044 15 7.42661 14.6049 6.72335 13.9017C6.02009 13.1984 5.625 12.2446 5.625 11.25ZM9.375 9.375C8.87772 9.375 8.40081 9.57254 8.04918 9.92418C7.69754 10.2758 7.5 10.7527 7.5 11.25C7.5 11.7473 7.69754 12.2242 8.04918 12.5758C8.40081 12.9275 8.87772 13.125 9.375 13.125C9.87228 13.125 10.3492 12.9275 10.7008 12.5758C11.0525 12.2242 11.25 11.7473 11.25 11.25C11.25 10.7527 11.0525 10.2758 10.7008 9.92418C10.3492 9.57254 9.87228 9.375 9.375 9.375ZM4.6875 16.875H14.0625C14.8084 16.875 15.5238 17.1713 16.0512 17.6988C16.5787 18.2262 16.875 18.9416 16.875 19.6875C16.875 21.78 16.0144 23.4562 14.6025 24.5906C13.2131 25.7062 11.3494 26.25 9.375 26.25C7.40063 26.25 5.53687 25.7062 4.1475 24.5906C2.7375 23.4562 1.875 21.78 1.875 19.6875C1.875 18.9416 2.17132 18.2262 2.69876 17.6988C3.22621 17.1713 3.94158 16.875 4.6875 16.875ZM14.0625 18.75H4.6875C4.43886 18.75 4.2004 18.8488 4.02459 19.0246C3.84877 19.2004 3.75 19.4389 3.75 19.6875C3.75 21.2194 4.35938 22.3556 5.32125 23.1281C6.3075 23.9194 7.725 24.375 9.375 24.375C11.025 24.375 12.4425 23.9194 13.4288 23.1281C14.3906 22.3556 15 21.2194 15 19.6875C15 19.4389 14.9012 19.2004 14.7254 19.0246C14.5496 18.8488 14.3111 18.75 14.0625 18.75Z" fill="#808080"/>
</svg>
