<svg width="30" height="30" viewBox="0 0 30 30" fill="none" xmlns="http://www.w3.org/2000/svg">
<path d="M22.5 11.25C24.5711 11.25 26.25 9.57107 26.25 7.5C26.25 5.42893 24.5711 3.75 22.5 3.75C20.4289 3.75 18.75 5.42893 18.75 7.5C18.75 9.57107 20.4289 11.25 22.5 11.25Z" fill="white"/>
<path d="M16.25 7.5C16.25 6.61 16.4412 5.76625 16.7775 5H7.5C6.12125 5 5 6.12125 5 7.5V22.5C5 23.8787 6.12125 25 7.5 25H22.5C23.8787 25 25 23.8787 25 22.5V13.2225C24.2123 13.5699 23.3609 13.7496 22.5 13.75C20.8424 13.75 19.2527 13.0915 18.0806 11.9194C16.9085 10.7473 16.25 9.1576 16.25 7.5Z" fill="white"/>
</svg>
