<svg width="30" height="30" viewBox="0 0 30 30" fill="none" xmlns="http://www.w3.org/2000/svg">
<path d="M17.5 28.125L14 23.75H7.5C7.16848 23.75 6.85054 23.6183 6.61612 23.3839C6.3817 23.1495 6.25 22.8315 6.25 22.5V8.87875C6.25 8.54723 6.3817 8.22929 6.61612 7.99487C6.85054 7.76045 7.16848 7.62875 7.5 7.62875H27.5C27.8315 7.62875 28.1495 7.76045 28.3839 7.99487C28.6183 8.22929 28.75 8.54723 28.75 8.87875V22.5C28.75 22.8315 28.6183 23.1495 28.3839 23.3839C28.1495 23.6183 27.8315 23.75 27.5 23.75H21L17.5 28.125ZM19.7987 21.25H26.25V10.1287H8.75V21.25H15.2013L17.5 24.1225L19.7987 21.25ZM2.5 2.5H23.75V5H3.75V18.75H1.25V3.75C1.25 3.41848 1.3817 3.10054 1.61612 2.86612C1.85054 2.6317 2.16848 2.5 2.5 2.5Z" fill="#808080"/>
</svg>
