<svg width="30" height="30" viewBox="0 0 30 30" fill="none" xmlns="http://www.w3.org/2000/svg">
<path d="M15 8.9125L16.2125 11.775L16.8 13.1625L18.3 13.2875L21.3875 13.55L19.0375 15.5875L17.9 16.575L18.2375 18.05L18.9375 21.0625L16.2875 19.4625L15 18.6625L13.7125 19.4375L11.0625 21.0375L11.7625 18.025L12.1 16.55L10.9625 15.5625L8.6125 13.525L11.7 13.2625L13.2 13.1375L13.7875 11.75L15 8.9125ZM15 2.5L11.4875 10.7875L2.5 11.55L9.325 17.4625L7.275 26.25L15 21.5875L22.725 26.25L20.675 17.4625L27.5 11.55L18.5125 10.7875L15 2.5Z" fill="#808080"/>
</svg>
