<svg width="50" height="50" viewBox="0 0 50 50" fill="none" xmlns="http://www.w3.org/2000/svg">
<path d="M25 3.125C12.9199 3.125 3.125 12.9199 3.125 25C3.125 37.0801 12.9199 46.875 25 46.875C37.0801 46.875 46.875 37.0801 46.875 25C46.875 12.9199 37.0801 3.125 25 3.125ZM26.5625 35.5469C26.5625 35.7617 26.3867 35.9375 26.1719 35.9375H23.8281C23.6133 35.9375 23.4375 35.7617 23.4375 35.5469V22.2656C23.4375 22.0508 23.6133 21.875 23.8281 21.875H26.1719C26.3867 21.875 26.5625 22.0508 26.5625 22.2656V35.5469ZM25 18.75C24.3867 18.7375 23.8027 18.485 23.3734 18.0469C22.9441 17.6087 22.7036 17.0197 22.7036 16.4062C22.7036 15.7928 22.9441 15.2038 23.3734 14.7656C23.8027 14.3275 24.3867 14.075 25 14.0625C25.6133 14.075 26.1973 14.3275 26.6266 14.7656C27.0559 15.2038 27.2964 15.7928 27.2964 16.4062C27.2964 17.0197 27.0559 17.6087 26.6266 18.0469C26.1973 18.485 25.6133 18.7375 25 18.75Z" fill="white"/>
</svg>
