<svg width="50" height="50" viewBox="0 0 50 50" fill="none" xmlns="http://www.w3.org/2000/svg">
<path d="M35.9375 4.16699C36.6899 4.16699 37.4349 4.31518 38.13 4.6031C38.825 4.89102 39.4566 5.31302 39.9886 5.84503C40.5206 6.37703 40.9426 7.00861 41.2306 7.7037C41.5185 8.3988 41.6667 9.14379 41.6667 9.89616V40.1045C41.6667 40.8569 41.5185 41.6019 41.2306 42.297C40.9426 42.992 40.5206 43.6236 39.9886 44.1556C39.4566 44.6876 38.825 45.1096 38.13 45.3976C37.4349 45.6855 36.6899 45.8337 35.9375 45.8337H14.0625C13.31 45.8337 12.5648 45.6854 11.8696 45.3974C11.1743 45.1093 10.5427 44.6871 10.0106 44.1549C9.4786 43.6227 9.05663 42.9908 8.76884 42.2955C8.48104 41.6002 8.33305 40.855 8.33333 40.1024V9.89616C8.33333 8.37669 8.93694 6.91945 10.0114 5.84503C11.0858 4.7706 12.543 4.16699 14.0625 4.16699H14.6687V21.1816C14.6687 22.7399 16.3146 23.2941 17.4167 22.7232L17.6042 22.6087L21.9646 20.1149L26.4229 22.6774C27.3521 23.3191 29.05 22.8857 29.2354 21.4482L29.2521 21.1816V4.16699H35.9396H35.9375ZM26.1271 4.16699V18.9087L22.75 16.967C22.4882 16.8525 22.2044 16.7972 21.9188 16.8051C21.6332 16.8131 21.3529 16.884 21.0979 17.0128L20.875 17.1441L17.7937 18.9066V4.16699H26.1271Z" fill="white"/>
</svg>
