<svg width="50" height="50" viewBox="0 0 50 50" fill="none" xmlns="http://www.w3.org/2000/svg">
<path d="M35.9375 4.16675C36.6899 4.16675 37.4349 4.31494 38.13 4.60285C38.825 4.89077 39.4566 5.31278 39.9886 5.84478C40.5206 6.37678 40.9426 7.00836 41.2306 7.70346C41.5185 8.39855 41.6667 9.14355 41.6667 9.89592V40.1043C41.6667 40.8566 41.5185 41.6016 41.2306 42.2967C40.9426 42.9918 40.5206 43.6234 39.9886 44.1554C39.4566 44.6874 38.825 45.1094 38.13 45.3973C37.4349 45.6852 36.6899 45.8334 35.9375 45.8334H14.0625C13.31 45.8334 12.5648 45.6852 11.8696 45.3971C11.1743 45.1091 10.5427 44.6869 10.0106 44.1546C9.4786 43.6224 9.05663 42.9906 8.76884 42.2953C8.48104 41.5999 8.33305 40.8547 8.33333 40.1022V9.89592C8.33333 7.27092 10.0958 5.06258 12.5 4.38133V7.81258C11.8667 8.28758 11.4583 9.04175 11.4583 9.89592V40.1001C11.4583 41.5376 12.625 42.7043 14.0625 42.7043H35.9375C37.375 42.7043 38.5417 41.5376 38.5417 40.1001V9.89592C38.5417 8.45842 37.375 7.29175 35.9375 7.29175H31.25V4.16675H35.9375ZM29.1667 4.16675V21.123C29.1667 22.6792 27.5 23.2626 26.4792 22.7147L26.3083 22.6063L21.8792 19.9292L17.55 22.5355C16.5083 23.2855 14.7792 22.8272 14.5979 21.373L14.5833 21.1251V4.16675H29.1667ZM26.0417 7.29175H17.7083V18.798L20.9854 16.8209C21.2465 16.6821 21.5361 16.6054 21.8316 16.5967C22.1272 16.5881 22.4208 16.6477 22.6896 16.7709L26.0437 18.8001V7.29175H26.0417Z" fill="#808080"/>
</svg>
