<svg width="30" height="30" viewBox="0 0 30 30" fill="none" xmlns="http://www.w3.org/2000/svg">
<path d="M6.75 4.5C5.75544 4.5 4.80161 4.89509 4.09835 5.59835C3.39509 6.30161 3 7.25544 3 8.25V18.75C3 19.7446 3.39509 20.6984 4.09835 21.4016C4.80161 22.1049 5.75544 22.5 6.75 22.5H20.25C21.2446 22.5 22.1984 22.1049 22.9016 21.4016C23.6049 20.6984 24 19.7446 24 18.75V8.25C24 7.25544 23.6049 6.30161 22.9016 5.59835C22.1984 4.89509 21.2446 4.5 20.25 4.5H6.75ZM10.5 10.134C10.5002 9.9297 10.556 9.72931 10.6615 9.55433C10.7669 9.37935 10.918 9.23639 11.0986 9.1408C11.2791 9.0452 11.4823 9.00058 11.6863 9.01171C11.8903 9.02284 12.0874 9.08932 12.2565 9.204L17.6715 12.8805C17.7727 12.9491 17.8557 13.0415 17.913 13.1496C17.9704 13.2576 18.0005 13.378 18.0006 13.5004C18.0007 13.6227 17.971 13.7432 17.9139 13.8514C17.8568 13.9595 17.7741 14.0521 17.673 14.121L12.258 17.808C12.0889 17.9231 11.8916 17.9899 11.6874 18.0012C11.4832 18.0126 11.2797 17.9681 11.0989 17.8724C10.9181 17.7768 10.7668 17.6336 10.6613 17.4584C10.5558 17.2832 10.5 17.0825 10.5 16.878V10.134ZM9.75 25.5C9.16775 25.5005 8.59341 25.3651 8.07263 25.1047C7.55185 24.8443 7.09898 24.4661 6.75 24H21C22.1935 24 23.3381 23.5259 24.182 22.682C25.0259 21.8381 25.5 20.6935 25.5 19.5V8.25C26.4105 8.934 27 10.023 27 11.25V19.5C27 21.0913 26.3679 22.6174 25.2426 23.7426C24.1174 24.8679 22.5913 25.5 21 25.5H9.75Z" fill="white"/>
</svg>
