<svg width="30" height="30" viewBox="0 0 30 30" fill="none" xmlns="http://www.w3.org/2000/svg">
<path d="M10.5 16.878V10.134C10.5002 9.9297 10.556 9.72931 10.6615 9.55433C10.7669 9.37935 10.918 9.23639 11.0986 9.1408C11.2791 9.0452 11.4823 9.00058 11.6863 9.01171C11.8903 9.02284 12.0874 9.08932 12.2565 9.204L17.6715 12.879C17.7731 12.9476 17.8563 13.04 17.9138 13.1482C17.9714 13.2564 18.0016 13.3771 18.0017 13.4996C18.0019 13.6222 17.972 13.7429 17.9147 13.8512C17.8574 13.9595 17.7744 14.0522 17.673 14.121L12.258 17.808C12.0889 17.9231 11.8916 17.9899 11.6874 18.0012C11.4832 18.0126 11.2797 17.9681 11.0989 17.8724C10.9181 17.7768 10.7668 17.6336 10.6613 17.4584C10.5558 17.2832 10.5 17.0825 10.5 16.878ZM3 8.25C3 7.25544 3.39509 6.30161 4.09835 5.59835C4.80161 4.89509 5.75544 4.5 6.75 4.5H20.25C21.2446 4.5 22.1984 4.89509 22.9016 5.59835C23.6049 6.30161 24 7.25544 24 8.25V18.75C24 19.7446 23.6049 20.6984 22.9016 21.4016C22.1984 22.1049 21.2446 22.5 20.25 22.5H6.75C5.75544 22.5 4.80161 22.1049 4.09835 21.4016C3.39509 20.6984 3 19.7446 3 18.75V8.25ZM6.75 6C6.15326 6 5.58097 6.23705 5.15901 6.65901C4.73705 7.08097 4.5 7.65326 4.5 8.25V18.75C4.5 19.3467 4.73705 19.919 5.15901 20.341C5.58097 20.7629 6.15326 21 6.75 21H20.25C20.8467 21 21.419 20.7629 21.841 20.341C22.2629 19.919 22.5 19.3467 22.5 18.75V8.25C22.5 7.65326 22.2629 7.08097 21.841 6.65901C21.419 6.23705 20.8467 6 20.25 6H6.75ZM6.75 24C7.434 24.9105 8.523 25.5 9.75 25.5H21C22.5913 25.5 24.1174 24.8679 25.2426 23.7426C26.3679 22.6174 27 21.0913 27 19.5V11.25C27 10.023 26.4105 8.934 25.5 8.25V19.5C25.5 20.6935 25.0259 21.8381 24.182 22.682C23.3381 23.5259 22.1935 24 21 24H6.75Z" fill="#808080"/>
</svg>
