<svg width="50" height="50" viewBox="0 0 50 50" fill="none" xmlns="http://www.w3.org/2000/svg">
<path d="M10.4167 41.6667C11.5673 41.6667 12.5 40.7339 12.5 39.5833C12.5 38.4327 11.5673 37.5 10.4167 37.5C9.26608 37.5 8.33334 38.4327 8.33334 39.5833C8.33334 40.7339 9.26608 41.6667 10.4167 41.6667Z" fill="#808080"/>
<path d="M8.33334 8.33325H12.5V27.0833H8.33334V8.33325Z" fill="#808080"/>
<path d="M14.5833 4.16675H6.25C5.69746 4.16675 5.16756 4.38624 4.77686 4.77694C4.38616 5.16764 4.16666 5.69755 4.16666 6.25008V43.7501C4.16666 44.3026 4.38616 44.8325 4.77686 45.2232C5.16756 45.6139 5.69746 45.8334 6.25 45.8334H14.5833C15.1359 45.8334 15.6658 45.6139 16.0565 45.2232C16.4472 44.8325 16.6667 44.3026 16.6667 43.7501V6.25008C16.6667 5.69755 16.4472 5.16764 16.0565 4.77694C15.6658 4.38624 15.1359 4.16675 14.5833 4.16675ZM14.5833 43.7501H6.25V6.25008H14.5833V43.7501ZM29.1667 6.25008V20.8334H22.9167V6.25008H29.1667ZM31.25 4.16675H20.8333V22.9167H31.25V4.16675ZM43.75 6.25008V20.8334H37.5V6.25008H43.75ZM45.8333 4.16675H35.4167V22.9167H45.8333V4.16675ZM29.1667 29.1667V43.7501H22.9167V29.1667H29.1667ZM31.25 27.0834H20.8333V45.8334H31.25V27.0834ZM43.75 29.1667V43.7501H37.5V29.1667H43.75ZM45.8333 27.0834H35.4167V45.8334H45.8333V27.0834Z" fill="#808080"/>
</svg>
