<svg width="50" height="50" viewBox="0 0 50 50" fill="none" xmlns="http://www.w3.org/2000/svg">
<path d="M14.5834 4.1665H6.25008C5.69755 4.1665 5.16764 4.386 4.77694 4.7767C4.38624 5.1674 4.16675 5.6973 4.16675 6.24984V43.7498C4.16675 44.3024 4.38624 44.8323 4.77694 45.223C5.16764 45.6137 5.69755 45.8332 6.25008 45.8332H14.5834C15.1359 45.8332 15.6659 45.6137 16.0566 45.223C16.4473 44.8323 16.6667 44.3024 16.6667 43.7498V6.24984C16.6667 5.6973 16.4473 5.1674 16.0566 4.7767C15.6659 4.386 15.1359 4.1665 14.5834 4.1665ZM10.4167 43.7498C9.59266 43.7498 8.78708 43.5055 8.10187 43.0476C7.41667 42.5898 6.88262 41.939 6.56725 41.1777C6.25188 40.4163 6.16937 39.5786 6.33014 38.7703C6.49091 37.962 6.88775 37.2196 7.47047 36.6369C8.05319 36.0542 8.79562 35.6573 9.60387 35.4966C10.4121 35.3358 11.2499 35.4183 12.0113 35.7337C12.7726 36.049 13.4234 36.5831 13.8812 37.2683C14.339 37.9535 14.5834 38.7591 14.5834 39.5832C14.5834 40.6882 14.1444 41.7481 13.363 42.5294C12.5816 43.3109 11.5218 43.7498 10.4167 43.7498ZM14.5834 24.9998H6.25008V6.24984H14.5834V24.9998Z" fill="white"/>
<path d="M10.4376 41.6877C11.5882 41.6877 12.5209 40.7549 12.5209 39.6043C12.5209 38.4537 11.5882 37.521 10.4376 37.521C9.28699 37.521 8.35425 38.4537 8.35425 39.6043C8.35425 40.7549 9.28699 41.6877 10.4376 41.6877Z" fill="white"/>
<path d="M20.8542 4.1665V22.9373H31.2709V4.1665H20.8542ZM35.4167 4.1665V22.9373H45.8334V4.1665H35.4167ZM20.8542 27.0832V45.8332H31.2709V27.0832H20.8542ZM35.4167 27.0832V45.8332H45.8334V27.0832H35.4167Z" fill="white"/>
</svg>
