<svg width="30" height="30" viewBox="0 0 30 30" fill="none" xmlns="http://www.w3.org/2000/svg">
<path d="M12.6374 5.55005C12.4285 5.55005 12.2282 5.63302 12.0806 5.7807C11.9329 5.92839 11.8499 6.12869 11.8499 6.33755C11.8499 6.54641 11.9329 6.74671 12.0806 6.8944C12.2282 7.04208 12.4285 7.12505 12.6374 7.12505H17.3624C17.5713 7.12505 17.7716 7.04208 17.9192 6.8944C18.0669 6.74671 18.1499 6.54641 18.1499 6.33755C18.1499 6.12869 18.0669 5.92839 17.9192 5.7807C17.7716 5.63302 17.5713 5.55005 17.3624 5.55005H12.6374ZM19.7249 15C19.7249 16.2532 19.2271 17.455 18.341 18.3411C17.4549 19.2272 16.253 19.725 14.9999 19.725C13.7468 19.725 12.5449 19.2272 11.6588 18.3411C10.7727 17.455 10.2749 16.2532 10.2749 15C10.2749 13.7469 10.7727 12.5451 11.6588 11.659C12.5449 10.7729 13.7468 10.275 14.9999 10.275C16.253 10.275 17.4549 10.7729 18.341 11.659C19.2271 12.5451 19.7249 13.7469 19.7249 15Z" fill="white"/>
<path d="M9.4873 2.40002C8.44301 2.40002 7.4415 2.81487 6.70307 3.55329C5.96465 4.29172 5.5498 5.29323 5.5498 6.33752V24.45C5.5498 25.2855 5.88168 26.0867 6.47242 26.6774C7.06316 27.2682 7.86437 27.6 8.6998 27.6H21.2998C22.1352 27.6 22.9365 27.2682 23.5272 26.6774C24.1179 26.0867 24.4498 25.2855 24.4498 24.45V6.33752C24.4498 5.29323 24.035 4.29172 23.2965 3.55329C22.5581 2.81487 21.5566 2.40002 20.5123 2.40002L9.4873 2.40002ZM7.1248 6.33752C7.1248 5.71095 7.37371 5.11004 7.81676 4.66698C8.25982 4.22393 8.86073 3.97502 9.4873 3.97502H20.5123C21.1389 3.97502 21.7398 4.22393 22.1828 4.66698C22.6259 5.11004 22.8748 5.71095 22.8748 6.33752V23.3397C22.497 23.0374 22.0871 22.7776 21.6526 22.5648C20.3422 21.9096 18.249 21.3 14.9998 21.3C11.7506 21.3 9.6574 21.9096 8.347 22.5648C7.91249 22.7776 7.50264 23.0374 7.1248 23.3397V6.33752Z" fill="white"/>
</svg>
