<svg width="30" height="30" viewBox="0 0 30 30" fill="none" xmlns="http://www.w3.org/2000/svg">
<path d="M12.6375 5.55005C12.4286 5.55005 12.2283 5.63302 12.0807 5.7807C11.933 5.92839 11.85 6.12869 11.85 6.33755C11.85 6.54641 11.933 6.74671 12.0807 6.8944C12.2283 7.04208 12.4286 7.12505 12.6375 7.12505H17.3625C17.5714 7.12505 17.7717 7.04208 17.9193 6.8944C18.067 6.74671 18.15 6.54641 18.15 6.33755C18.15 6.12869 18.067 5.92839 17.9193 5.7807C17.7717 5.63302 17.5714 5.55005 17.3625 5.55005H12.6375ZM19.725 15C19.725 16.2532 19.2272 17.455 18.3411 18.3411C17.455 19.2272 16.2531 19.725 15 19.725C13.7469 19.725 12.545 19.2272 11.6589 18.3411C10.7728 17.455 10.275 16.2532 10.275 15C10.275 13.7469 10.7728 12.5451 11.6589 11.659C12.545 10.7729 13.7469 10.275 15 10.275C16.2531 10.275 17.455 10.7729 18.3411 11.659C19.2272 12.5451 19.725 13.7469 19.725 15Z" fill="#808080"/>
<path d="M9.4875 2.40002C8.44321 2.40002 7.44169 2.81487 6.70327 3.55329C5.96485 4.29172 5.55 5.29323 5.55 6.33752V24.45C5.55 25.2855 5.88188 26.0867 6.47262 26.6774C7.06336 27.2682 7.86457 27.6 8.7 27.6H21.3C22.1354 27.6 22.9366 27.2682 23.5274 26.6774C24.1181 26.0867 24.45 25.2855 24.45 24.45V6.33752C24.45 5.29323 24.0352 4.29172 23.2967 3.55329C22.5583 2.81487 21.5568 2.40002 20.5125 2.40002L9.4875 2.40002ZM7.125 6.33752C7.125 5.71095 7.37391 5.11004 7.81696 4.66698C8.26002 4.22393 8.86093 3.97502 9.4875 3.97502H20.5125C21.1391 3.97502 21.74 4.22393 22.183 4.66698C22.6261 5.11004 22.875 5.71095 22.875 6.33752V23.3397C22.4972 23.0374 22.0873 22.7776 21.6528 22.5648C20.3424 21.9096 18.2492 21.3 15 21.3C11.7508 21.3 9.6576 21.9096 8.3472 22.5648C7.91269 22.7776 7.50284 23.0374 7.125 23.3397V6.33752Z" fill="#808080"/>
</svg>
