<svg width="44" height="44" viewBox="0 0 44 44" fill="none" xmlns="http://www.w3.org/2000/svg">
<path d="M0.125 22C0.125 26.3265 1.40795 30.5558 3.8116 34.1531C6.21526 37.7504 9.63167 40.5542 13.6288 42.2099C17.6259 43.8655 22.0243 44.2987 26.2676 43.4547C30.5109 42.6106 34.4087 40.5272 37.468 37.468C40.5272 34.4087 42.6106 30.5109 43.4547 26.2676C44.2987 22.0243 43.8655 17.6259 42.2099 13.6288C40.5542 9.63167 37.7504 6.21526 34.1531 3.8116C30.5558 1.40795 26.3265 0.125 22 0.125C16.1984 0.125 10.6344 2.42968 6.53204 6.53204C2.42968 10.6344 0.125 16.1984 0.125 22ZM9.5 20.4375H28.4844L19.7656 11.6766L22 9.5L34.5 22L22 34.5L19.7656 32.2703L28.4844 23.5625H9.5V20.4375Z" fill="#3F3F3F"/>
</svg>
