<svg width="30" height="30" viewBox="0 0 30 30" fill="none" xmlns="http://www.w3.org/2000/svg">
<path d="M22.5 11.25C24.5711 11.25 26.25 9.57107 26.25 7.5C26.25 5.42893 24.5711 3.75 22.5 3.75C20.4289 3.75 18.75 5.42893 18.75 7.5C18.75 9.57107 20.4289 11.25 22.5 11.25Z" fill="#808080"/>
<path d="M22.5 23.75H6.25V7.5H16.25C16.25 6.61 16.4412 5.76625 16.7775 5H6.25C4.87125 5 3.75 6.12125 3.75 7.5V23.75C3.75 25.1287 4.87125 26.25 6.25 26.25H22.5C23.8787 26.25 25 25.1287 25 23.75V13.2225C24.2123 13.5699 23.3609 13.7496 22.5 13.75V23.75Z" fill="#808080"/>
</svg>
