<svg width="30" height="30" viewBox="0 0 30 30" fill="none" xmlns="http://www.w3.org/2000/svg">
<g clip-path="url(#clip0_1105_55092)">
<path d="M27.5 5.33331L24.4167 2.24997C24.1517 1.99729 23.7996 1.85632 23.4334 1.85632C23.0672 1.85632 22.7151 1.99729 22.45 2.24997L19.7084 4.99997H5.00004C4.55801 4.99997 4.13409 5.17557 3.82153 5.48813C3.50897 5.80069 3.33337 6.22461 3.33337 6.66664V25C3.33337 25.442 3.50897 25.8659 3.82153 26.1785C4.13409 26.491 4.55801 26.6666 5.00004 26.6666H23.3334C23.7754 26.6666 24.1993 26.491 24.5119 26.1785C24.8244 25.8659 25 25.442 25 25V9.79997L27.5 7.29997C27.7606 7.03905 27.9069 6.68538 27.9069 6.31664C27.9069 5.9479 27.7606 5.59424 27.5 5.33331ZM15.6917 16.775L12.2 17.55L13.0334 14.0916L20.9917 6.11664L23.6834 8.80831L15.6917 16.775ZM24.5834 7.85831L21.8917 5.16664L23.4334 3.62497L26.125 6.31664L24.5834 7.85831Z" fill="white"/>
</g>
<defs>
<clipPath id="clip0_1105_55092">
<rect width="30" height="30" fill="white"/>
</clipPath>
</defs>
</svg>
