<svg width="30" height="30" viewBox="0 0 30 30" fill="none" xmlns="http://www.w3.org/2000/svg">
<g clip-path="url(#clip0_1105_54802)">
<path d="M23.3334 25H5.00004V6.66667H16.0167L17.6834 5H5.00004C4.55801 5 4.13409 5.17559 3.82153 5.48816C3.50897 5.80072 3.33337 6.22464 3.33337 6.66667V25C3.33337 25.442 3.50897 25.8659 3.82153 26.1785C4.13409 26.4911 4.55801 26.6667 5.00004 26.6667H23.3334C23.7754 26.6667 24.1993 26.4911 24.5119 26.1785C24.8244 25.8659 25 25.442 25 25V12.5L23.3334 14.1667V25Z" fill="#808080"/>
<path d="M27.9417 4.86666L25.1333 2.05833C25.0087 1.93335 24.8606 1.8342 24.6976 1.76654C24.5346 1.69889 24.3598 1.66406 24.1833 1.66406C24.0068 1.66406 23.8321 1.69889 23.6691 1.76654C23.506 1.8342 23.358 1.93335 23.2333 2.05833L11.8083 13.55L10.8833 17.5583C10.8439 17.7526 10.8481 17.9532 10.8955 18.1458C10.9429 18.3383 11.0323 18.5179 11.1574 18.6717C11.2826 18.8255 11.4402 18.9496 11.619 19.0352C11.7978 19.1208 11.9934 19.1657 12.1917 19.1667C12.2941 19.1779 12.3975 19.1779 12.5 19.1667L16.5417 18.275L27.9417 6.76666C28.0666 6.64203 28.1658 6.49396 28.2335 6.33094C28.3011 6.16793 28.3359 5.99316 28.3359 5.81666C28.3359 5.64016 28.3011 5.4654 28.2335 5.30238C28.1658 5.13936 28.0666 4.99129 27.9417 4.86666ZM15.675 16.7333L12.625 17.4083L13.3333 14.3833L21.9333 5.72499L24.2833 8.07499L15.675 16.7333ZM25.225 7.13333L22.875 4.78333L24.1667 3.46666L26.5333 5.83333L25.225 7.13333Z" fill="#808080"/>
</g>
<defs>
<clipPath id="clip0_1105_54802">
<rect width="30" height="30" fill="white"/>
</clipPath>
</defs>
</svg>
