<svg width="31" height="30" viewBox="0 0 31 30" fill="none" xmlns="http://www.w3.org/2000/svg">
<g clip-path="url(#clip0_1491_62170)">
<path d="M15.5 8.9125L16.753 11.775L17.36 13.1625L18.91 13.2875L22.1005 13.55L19.6721 15.5875L18.4967 16.575L18.8455 18.05L19.5688 21.0625L16.8305 19.4625L15.5 18.6625L14.1696 19.4375L11.4313 21.0375L12.1546 18.025L12.5034 16.55L11.328 15.5625L8.89962 13.525L12.09 13.2625L13.64 13.1375L14.2471 11.75L15.5 8.9125ZM15.5 2.5L11.8705 10.7875L2.58337 11.55L9.63587 17.4625L7.51754 26.25L15.5 21.5875L23.4825 26.25L21.3642 17.4625L28.4167 11.55L19.1296 10.7875L15.5 2.5Z" fill="#808080"/>
<path d="M15.5 21.5875L23.4825 26.25L21.3642 17.4625L28.4167 11.55L19.1296 10.7875L15.5 2.5L11.8705 10.7875L2.58337 11.55L9.63587 17.4625L7.51754 26.25L15.5 21.5875Z" fill="#808080"/>
</g>
<defs>
<clipPath id="clip0_1491_62170">
<rect width="31" height="30" fill="white"/>
</clipPath>
</defs>
</svg>
