<svg width="30" height="30" viewBox="0 0 30 30" fill="none" xmlns="http://www.w3.org/2000/svg">
<path d="M23.75 3.75H6.25C4.875 3.75 3.75 4.875 3.75 6.25V23.75C3.75 25.125 4.875 26.25 6.25 26.25H23.75C25.125 26.25 26.25 25.125 26.25 23.75V6.25C26.25 4.875 25.125 3.75 23.75 3.75ZM11.875 14.375C11.875 15.375 11 16.25 10 16.25H8.75V18.75H6.875V11.25H10C11 11.25 11.875 12.125 11.875 13.125V14.375ZM18.125 16.875C18.125 17.875 17.25 18.75 16.25 18.75H13.125V11.25H16.25C17.25 11.25 18.125 12.125 18.125 13.125V16.875ZM23.125 13.125H21.25V14.375H23.125V16.25H21.25V18.75H19.375V11.25H23.125V13.125ZM15 13.125H16.25V16.875H15V13.125ZM8.75 13.125H10V14.375H8.75V13.125Z" fill="#AF4A6D"/>
</svg>
