<svg width="30" height="30" viewBox="0 0 30 30" fill="none" xmlns="http://www.w3.org/2000/svg">
<path d="M18.348 13.5H20.25C20.4489 13.5 20.6397 13.579 20.7803 13.7196C20.921 13.8603 21 14.051 21 14.25C21 14.4489 20.921 14.6396 20.7803 14.7803C20.6397 14.9209 20.4489 15 20.25 15H9.75C9.55109 15 9.36032 14.9209 9.21967 14.7803C9.07902 14.6396 9 14.4489 9 14.25C9 14.051 9.07902 13.8603 9.21967 13.7196C9.36032 13.579 9.55109 13.5 9.75 13.5H10.8855C10.6732 13.2645 10.541 12.9678 10.5079 12.6525C10.4747 12.3372 10.5423 12.0194 10.701 11.745L14.451 5.24996C14.6499 4.90545 14.9775 4.65407 15.3618 4.55111C15.7461 4.44815 16.1555 4.50206 16.5 4.70096L20.397 6.95096C20.7415 7.14988 20.9929 7.4775 21.0958 7.86176C21.1988 8.24602 21.1449 8.65544 20.946 8.99996L18.348 13.5ZM19.647 8.24996L15.75 5.99996L12 12.495L13.74 13.5H16.617L19.647 8.24996ZM20.94 12L21.8055 10.5C22.0289 10.5083 22.2477 10.5666 22.4457 10.6704C22.6437 10.7742 22.816 10.921 22.95 11.1L26.7 16.0995C26.8947 16.3591 27 16.6749 27 16.9995V24C27 24.3978 26.842 24.7793 26.5607 25.0606C26.2794 25.3419 25.8978 25.5 25.5 25.5H4.5C4.10218 25.5 3.72064 25.3419 3.43934 25.0606C3.15804 24.7793 3 24.3978 3 24V16.9995C3 16.6749 3.10527 16.3591 3.3 16.0995L7.05 11.1C7.18972 10.9137 7.3709 10.7625 7.57918 10.6583C7.78746 10.5542 8.01713 10.5 8.25 10.5H9.6945L8.976 11.745C8.92917 11.8261 8.89 11.9115 8.859 12H8.25L4.875 16.5H25.125L21.75 12H20.94ZM4.5 24H25.5V18H4.5V24Z" fill="#808080"/>
</svg>
