<svg width="30" height="30" viewBox="0 0 30 30" fill="none" xmlns="http://www.w3.org/2000/svg">
<path d="M20.25 13.5H18.348L20.946 9.00002C21.1449 8.6555 21.1988 8.24608 21.0958 7.86182C20.9929 7.47756 20.7415 7.14994 20.397 6.95102L16.5 4.70102C16.1555 4.50212 15.7461 4.44821 15.3618 4.55117C14.9775 4.65413 14.6499 4.90551 14.451 5.25002L10.701 11.745C10.5423 12.0195 10.4747 12.3372 10.5079 12.6525C10.541 12.9678 10.6732 13.2645 10.8855 13.5H9.75C9.55109 13.5 9.36032 13.579 9.21967 13.7197C9.07902 13.8603 9 14.0511 9 14.25C9 14.4489 9.07902 14.6397 9.21967 14.7803C9.36032 14.921 9.55109 15 9.75 15H20.25C20.4489 15 20.6397 14.921 20.7803 14.7803C20.921 14.6397 21 14.4489 21 14.25C21 14.0511 20.921 13.8603 20.7803 13.7197C20.6397 13.579 20.4489 13.5 20.25 13.5ZM15.75 6.00002L19.647 8.25002L16.617 13.5H13.74L12 12.495L15.75 6.00002ZM21.8055 10.5L20.94 12H21.75L25.125 16.5H4.875L8.25 12H8.859C8.88962 11.9114 8.9288 11.826 8.976 11.745L9.696 10.5H8.25C8.01713 10.5 7.78746 10.5542 7.57918 10.6584C7.3709 10.7625 7.18972 10.9137 7.05 11.1L3.3 16.0995C3.10527 16.3592 3 16.675 3 16.9995V24C3 24.3978 3.15804 24.7794 3.43934 25.0607C3.72064 25.342 4.10218 25.5 4.5 25.5H25.5C25.8978 25.5 26.2794 25.342 26.5607 25.0607C26.842 24.7794 27 24.3978 27 24V16.9995C27 16.675 26.8947 16.3592 26.7 16.0995L22.95 11.1C22.816 10.921 22.6437 10.7743 22.4457 10.6705C22.2477 10.5666 22.0289 10.5084 21.8055 10.5Z" fill="white"/>
</svg>
