<svg width="30" height="30" viewBox="0 0 30 30" fill="none" xmlns="http://www.w3.org/2000/svg">
<path d="M17.5 18.75C17.8542 18.75 18.1617 18.62 18.4225 18.36C18.6825 18.0992 18.8125 17.7917 18.8125 17.4375C18.8125 17.0833 18.6825 16.7758 18.4225 16.515C18.1617 16.255 17.8542 16.125 17.5 16.125C17.1458 16.125 16.8387 16.255 16.5787 16.515C16.3179 16.7758 16.1875 17.0833 16.1875 17.4375C16.1875 17.7917 16.3179 18.0992 16.5787 18.36C16.8387 18.62 17.1458 18.75 17.5 18.75ZM16.5625 14.75H18.4375C18.4375 14.1458 18.5 13.7029 18.625 13.4213C18.75 13.1404 19.0417 12.7708 19.5 12.3125C20.125 11.6875 20.5417 11.1821 20.75 10.7963C20.9583 10.4113 21.0625 9.95833 21.0625 9.4375C21.0625 8.5 20.7342 7.73458 20.0775 7.14125C19.4217 6.54708 18.5625 6.25 17.5 6.25C16.6458 6.25 15.9013 6.48958 15.2663 6.96875C14.6304 7.44792 14.1875 8.08333 13.9375 8.875L15.625 9.5625C15.8125 9.04167 16.0679 8.65083 16.3912 8.39C16.7137 8.13 17.0833 8 17.5 8C18 8 18.4062 8.14042 18.7188 8.42125C19.0312 8.70292 19.1875 9.08333 19.1875 9.5625C19.1875 9.85417 19.1042 10.13 18.9375 10.39C18.7708 10.6508 18.4792 10.9792 18.0625 11.375C17.375 11.9792 16.9533 12.4529 16.7975 12.7963C16.6408 13.1404 16.5625 13.7917 16.5625 14.75ZM10 22.5C9.3125 22.5 8.72417 22.2554 8.235 21.7663C7.745 21.2763 7.5 20.6875 7.5 20V5C7.5 4.3125 7.745 3.72375 8.235 3.23375C8.72417 2.74458 9.3125 2.5 10 2.5H25C25.6875 2.5 26.2763 2.74458 26.7663 3.23375C27.2554 3.72375 27.5 4.3125 27.5 5V20C27.5 20.6875 27.2554 21.2763 26.7663 21.7663C26.2763 22.2554 25.6875 22.5 25 22.5H10ZM5 27.5C4.3125 27.5 3.72417 27.2554 3.235 26.7663C2.745 26.2763 2.5 25.6875 2.5 25V7.5H5V25H22.5V27.5H5Z" fill="white"/>
</svg>
