<svg width="30" height="30" viewBox="0 0 30 30" fill="none" xmlns="http://www.w3.org/2000/svg">
<path d="M25.7345 14.1654L5.10954 3.85292C4.94789 3.77207 4.76631 3.73968 4.58668 3.75964C4.40704 3.7796 4.23701 3.85106 4.09704 3.96542C3.96338 4.07744 3.86361 4.22453 3.80896 4.39015C3.7543 4.55576 3.74693 4.73334 3.78767 4.90292L6.27204 14.0623H16.8752V15.9373H6.27204L3.75017 25.0685C3.71194 25.2102 3.70748 25.3588 3.73714 25.5024C3.7668 25.6461 3.82975 25.7808 3.92094 25.8957C4.01213 26.0106 4.129 26.1024 4.26217 26.164C4.39533 26.2255 4.54107 26.2549 4.68767 26.2498C4.83442 26.2489 4.97893 26.2136 5.10954 26.1467L25.7345 15.8342C25.8881 15.7555 26.017 15.636 26.107 15.4888C26.197 15.3415 26.2446 15.1723 26.2446 14.9998C26.2446 14.8272 26.197 14.6581 26.107 14.5108C26.017 14.3636 25.8881 14.2441 25.7345 14.1654Z" fill="white"/>
</svg>
