<svg width="50" height="50" viewBox="0 0 50 50" fill="none" xmlns="http://www.w3.org/2000/svg">
<path d="M45.1562 30.5518L41.958 27.8174C42.1094 26.8896 42.1875 25.9424 42.1875 24.9951C42.1875 24.0479 42.1094 23.1006 41.958 22.1729L45.1562 19.4385C45.3975 19.232 45.5701 18.9569 45.6512 18.6499C45.7324 18.3429 45.7181 18.0184 45.6103 17.7197L45.5664 17.5928C44.6859 15.132 43.3675 12.8508 41.6748 10.8594L41.5869 10.7568C41.3816 10.5154 41.1079 10.3418 40.8019 10.259C40.496 10.1762 40.1721 10.1881 39.873 10.293L35.9033 11.7041C34.4385 10.5029 32.8027 9.55566 31.0351 8.8916L30.2686 4.74121C30.2107 4.42892 30.0592 4.14161 29.8342 3.91747C29.6092 3.69333 29.3213 3.54295 29.0088 3.48633L28.8769 3.46191C26.333 3.00293 23.6572 3.00293 21.1133 3.46191L20.9814 3.48633C20.6689 3.54295 20.381 3.69333 20.156 3.91747C19.931 4.14161 19.7795 4.42892 19.7217 4.74121L18.9502 8.91113C17.1967 9.57533 15.5638 10.5221 14.1162 11.7139L10.1172 10.293C9.81819 10.1872 9.49409 10.175 9.18796 10.2578C8.88183 10.3407 8.60816 10.5147 8.40332 10.7568L8.31542 10.8594C6.62473 12.8522 5.30652 15.133 4.42382 17.5928L4.37988 17.7197C4.16015 18.3301 4.34081 19.0137 4.83398 19.4385L8.07128 22.2021C7.91992 23.1201 7.84667 24.0576 7.84667 24.9902C7.84667 25.9277 7.91992 26.8652 8.07128 27.7783L4.83398 30.542C4.59275 30.7485 4.42009 31.0236 4.33898 31.3306C4.25786 31.6376 4.27213 31.962 4.37988 32.2607L4.42382 32.3877C5.30761 34.8486 6.61621 37.1191 8.31542 39.1211L8.40332 39.2236C8.60866 39.4651 8.88234 39.6386 9.18829 39.7214C9.49424 39.8043 9.81809 39.7924 10.1172 39.6875L14.1162 38.2666C15.5713 39.4629 17.1973 40.4102 18.9502 41.0693L19.7217 45.2393C19.7795 45.5516 19.931 45.8389 20.156 46.063C20.381 46.2871 20.6689 46.4375 20.9814 46.4941L21.1133 46.5186C23.6806 46.98 26.3096 46.98 28.8769 46.5186L29.0088 46.4941C29.3213 46.4375 29.6092 46.2871 29.8342 46.063C30.0592 45.8389 30.2107 45.5516 30.2686 45.2393L31.0351 41.0889C32.802 40.4265 34.447 39.4762 35.9033 38.2764L39.873 39.6875C40.172 39.7933 40.4961 39.8055 40.8023 39.7227C41.1084 39.6398 41.3821 39.4658 41.5869 39.2236L41.6748 39.1211C43.374 37.1143 44.6826 34.8486 45.5664 32.3877L45.6103 32.2607C45.8301 31.6602 45.6494 30.9766 45.1562 30.5518ZM38.4912 22.749C38.6133 23.4863 38.6768 24.2432 38.6768 25C38.6768 25.7568 38.6133 26.5137 38.4912 27.251L38.1689 29.209L41.8164 32.3291C41.2635 33.603 40.5655 34.8089 39.7363 35.9229L35.2051 34.3164L33.6719 35.5762C32.5049 36.5332 31.206 37.2852 29.7998 37.8125L27.9394 38.5107L27.0654 43.2471C25.6864 43.4033 24.2941 43.4033 22.915 43.2471L22.041 38.501L20.1953 37.793C18.8037 37.2656 17.5098 36.5137 16.3525 35.5615L14.8193 34.2969L10.2588 35.918C9.42871 34.7998 8.73535 33.5938 8.17871 32.3242L11.8652 29.1748L11.5478 27.2217C11.4307 26.4941 11.3672 25.7422 11.3672 25C11.3672 24.2529 11.4258 23.5059 11.5478 22.7783L11.8652 20.8252L8.17871 17.6758C8.73046 16.4014 9.42871 15.2002 10.2588 14.082L14.8193 15.7031L16.3525 14.4385C17.5098 13.4863 18.8037 12.7344 20.1953 12.207L22.0459 11.5088L22.9199 6.7627C24.292 6.60645 25.6934 6.60645 27.0703 6.7627L27.9443 11.499L29.8047 12.1973C31.2061 12.7246 32.5098 13.4766 33.6768 14.4336L35.21 15.6934L39.7412 14.0869C40.5713 15.2051 41.2646 16.4111 41.8213 17.6807L38.1738 20.8008L38.4912 22.749ZM25 15.918C20.2539 15.918 16.4062 19.7656 16.4062 24.5117C16.4062 29.2578 20.2539 33.1055 25 33.1055C29.7461 33.1055 33.5937 29.2578 33.5937 24.5117C33.5937 19.7656 29.7461 15.918 25 15.918ZM28.8672 28.3789C28.36 28.8876 27.7572 29.291 27.0935 29.5658C26.4298 29.8407 25.7183 29.9816 25 29.9805C23.54 29.9805 22.168 29.4092 21.1328 28.3789C20.6241 27.8717 20.2208 27.2689 19.9459 26.6052C19.671 25.9415 19.5301 25.2301 19.5312 24.5117C19.5312 23.0518 20.1025 21.6797 21.1328 20.6445C22.168 19.6094 23.54 19.043 25 19.043C26.46 19.043 27.832 19.6094 28.8672 20.6445C29.3759 21.1517 29.7792 21.7545 30.0541 22.4182C30.3289 23.0819 30.4699 23.7934 30.4687 24.5117C30.4687 25.9717 29.8975 27.3438 28.8672 28.3789Z" fill="#808080"/>
</svg>
