<svg width="50" height="50" viewBox="0 0 50 50" fill="none" xmlns="http://www.w3.org/2000/svg">
<path d="M25.0244 19.0723C23.5644 19.0723 22.1973 19.6387 21.1621 20.6738C20.1318 21.709 19.5605 23.0762 19.5605 24.5361C19.5605 25.9961 20.1318 27.3633 21.1621 28.3984C22.1973 29.4287 23.5644 30 25.0244 30C26.4844 30 27.8516 29.4287 28.8867 28.3984C29.917 27.3633 30.4883 25.9961 30.4883 24.5361C30.4883 23.0762 29.917 21.709 28.8867 20.6738C28.3811 20.1643 27.7793 19.7604 27.1163 19.4855C26.4532 19.2105 25.7422 19.0701 25.0244 19.0723ZM45.1562 30.5713L41.9629 27.8418C42.1143 26.9141 42.1924 25.9668 42.1924 25.0244C42.1924 24.082 42.1143 23.1299 41.9629 22.207L45.1562 19.4775C45.3975 19.271 45.5701 18.996 45.6512 18.689C45.7324 18.3819 45.7181 18.0575 45.6103 17.7588L45.5664 17.6318C44.6876 15.1743 43.3707 12.8963 41.6797 10.9082L41.5918 10.8057C41.3864 10.5642 41.1128 10.3907 40.8068 10.3078C40.5009 10.225 40.177 10.2369 39.8779 10.3418L35.9131 11.7529C34.4482 10.5518 32.8174 9.60449 31.0498 8.94531L30.2832 4.7998C30.2254 4.48751 30.0739 4.20021 29.8489 3.97606C29.6238 3.75192 29.3359 3.60155 29.0234 3.54492L28.8916 3.52051C26.3525 3.06152 23.6768 3.06152 21.1377 3.52051L21.0059 3.54492C20.6933 3.60155 20.4054 3.75192 20.1804 3.97606C19.9554 4.20021 19.8039 4.48751 19.7461 4.7998L18.9746 8.96484C17.2238 9.62928 15.5927 10.5742 14.1455 11.7627L10.1514 10.3418C9.85236 10.236 9.52827 10.2238 9.22214 10.3066C8.91601 10.3895 8.64234 10.5635 8.43749 10.8057L8.3496 10.9082C6.66158 12.8984 5.34507 15.1758 4.46288 17.6318L4.41894 17.7588C4.19921 18.3691 4.37988 19.0527 4.87304 19.4775L8.10546 22.2363C7.95409 23.1543 7.88085 24.0918 7.88085 25.0195C7.88085 25.957 7.95409 26.8945 8.10546 27.8027L4.88281 30.5615C4.64157 30.768 4.46892 31.0431 4.38781 31.3501C4.30669 31.6571 4.32095 31.9816 4.4287 32.2803L4.47265 32.4072C5.35644 34.8633 6.66015 37.1338 8.35937 39.1309L8.44726 39.2334C8.6526 39.4748 8.92628 39.6484 9.23223 39.7312C9.53818 39.814 9.86204 39.8022 10.1611 39.6973L14.1553 38.2764C15.6103 39.4727 17.2314 40.4199 18.9844 41.0742L19.7559 45.2393C19.8137 45.5516 19.9652 45.8389 20.1902 46.063C20.4152 46.2871 20.7031 46.4375 21.0156 46.4941L21.1475 46.5186C23.7115 46.98 26.3373 46.98 28.9014 46.5186L29.0332 46.4941C29.3457 46.4375 29.6336 46.2871 29.8586 46.063C30.0836 45.8389 30.2351 45.5516 30.293 45.2393L31.0596 41.0938C32.8271 40.4297 34.458 39.4873 35.9228 38.2861L39.8877 39.6973C40.1867 39.803 40.5108 39.8153 40.8169 39.7324C41.123 39.6496 41.3967 39.4755 41.6016 39.2334L41.6894 39.1309C43.3887 37.124 44.6924 34.8633 45.5762 32.4072L45.6201 32.2803C45.8301 31.6748 45.6494 30.9961 45.1562 30.5713ZM25.0244 33.1201C20.2832 33.1201 16.4404 29.2773 16.4404 24.5361C16.4404 19.7949 20.2832 15.9521 25.0244 15.9521C29.7656 15.9521 33.6084 19.7949 33.6084 24.5361C33.6084 29.2773 29.7656 33.1201 25.0244 33.1201Z" fill="white"/>
</svg>
