<svg width="30" height="30" viewBox="0 0 30 30" fill="none" xmlns="http://www.w3.org/2000/svg">
<path d="M8.375 18.375C8.14583 18.1458 8.03125 17.8542 8.03125 17.5C8.03125 17.1458 8.14583 16.8542 8.375 16.625L14.125 10.875C14.25 10.75 14.3854 10.6613 14.5312 10.6088C14.6771 10.5571 14.8333 10.5312 15 10.5312C15.1667 10.5312 15.3283 10.5625 15.485 10.625C15.6408 10.6875 15.7708 10.7708 15.875 10.875L21.625 16.625C21.8542 16.8542 21.9688 17.1458 21.9688 17.5C21.9688 17.8542 21.8542 18.1458 21.625 18.375C21.3958 18.6042 21.1042 18.7188 20.75 18.7188C20.3958 18.7188 20.1042 18.6042 19.875 18.375L15 13.5L10.125 18.375C9.89583 18.6042 9.60417 18.7188 9.25 18.7188C8.89583 18.7188 8.60417 18.6042 8.375 18.375Z" fill="#808080"/>
</svg>
