<svg width="30" height="30" viewBox="0 0 30 30" fill="none" xmlns="http://www.w3.org/2000/svg">
<path d="M15 3C13.4087 3 11.8826 3.63214 10.7574 4.75736C9.63214 5.88258 9 7.4087 9 9C9 10.5913 9.63214 12.1174 10.7574 13.2426C11.8826 14.3679 13.4087 15 15 15C16.5913 15 18.1174 14.3679 19.2426 13.2426C20.3679 12.1174 21 10.5913 21 9C21 7.4087 20.3679 5.88258 19.2426 4.75736C18.1174 3.63214 16.5913 3 15 3ZM7.5135 16.5C7.11845 16.4984 6.72698 16.5748 6.36154 16.7249C5.99609 16.8749 5.66386 17.0956 5.38389 17.3743C5.10392 17.653 4.88173 17.9843 4.73005 18.3491C4.57837 18.7138 4.50019 19.105 4.5 19.5C4.5 22.0365 5.7495 23.949 7.7025 25.1955C9.2745 26.1975 11.295 26.7675 13.5 26.94V21C13.5 20.2044 13.8161 19.4413 14.3787 18.8787C14.9413 18.3161 15.7044 18 16.5 18H25.098C24.8347 17.544 24.456 17.1652 24 16.9019C23.5439 16.6386 23.0266 16.5 22.5 16.5H7.5135ZM28.5 21.75V26.25C28.5 26.8467 28.2629 27.419 27.841 27.841C27.419 28.2629 26.8467 28.5 26.25 28.5H17.25C16.6533 28.5 16.081 28.2629 15.659 27.841C15.2371 27.419 15 26.8467 15 26.25V21.75C15 21.1533 15.2371 20.581 15.659 20.159C16.081 19.7371 16.6533 19.5 17.25 19.5H26.25C26.8467 19.5 27.419 19.7371 27.841 20.159C28.2629 20.581 28.5 21.1533 28.5 21.75ZM27 26.25V24.75C26.4033 24.75 25.831 24.9871 25.409 25.409C24.9871 25.831 24.75 26.4033 24.75 27H26.25C26.25 26.8011 26.329 26.6103 26.4697 26.4697C26.6103 26.329 26.8011 26.25 27 26.25ZM27 21.75C26.8011 21.75 26.6103 21.671 26.4697 21.5303C26.329 21.3897 26.25 21.1989 26.25 21H24.75C24.75 21.5967 24.9871 22.169 25.409 22.591C25.831 23.0129 26.4033 23.25 27 23.25V21.75ZM17.25 21C17.25 21.1989 17.171 21.3897 17.0303 21.5303C16.8897 21.671 16.6989 21.75 16.5 21.75V23.25C17.0967 23.25 17.669 23.0129 18.091 22.591C18.5129 22.169 18.75 21.5967 18.75 21H17.25ZM16.5 26.25C16.6989 26.25 16.8897 26.329 17.0303 26.4697C17.171 26.6103 17.25 26.8011 17.25 27H18.75C18.75 26.4033 18.5129 25.831 18.091 25.409C17.669 24.9871 17.0967 24.75 16.5 24.75V26.25ZM21.75 21.75C21.1533 21.75 20.581 21.9871 20.159 22.409C19.7371 22.831 19.5 23.4033 19.5 24C19.5 24.5967 19.7371 25.169 20.159 25.591C20.581 26.0129 21.1533 26.25 21.75 26.25C22.3467 26.25 22.919 26.0129 23.341 25.591C23.7629 25.169 24 24.5967 24 24C24 23.4033 23.7629 22.831 23.341 22.409C22.919 21.9871 22.3467 21.75 21.75 21.75Z" fill="white"/>
</svg>
